<?xml version="1.0" encoding="utf-8"?>
<!-- Generator: Adobe Illustrator 28.0.0, SVG Export Plug-In . SVG Version: 6.00 Build 0)  -->
<!DOCTYPE svg PUBLIC "-//W3C//DTD SVG 1.1//EN" "http://www.w3.org/Graphics/SVG/1.1/DTD/svg11.dtd" [
	<!ENTITY ns_extend "http://ns.adobe.com/Extensibility/1.0/">
	<!ENTITY ns_ai "http://ns.adobe.com/AdobeIllustrator/10.0/">
	<!ENTITY ns_graphs "http://ns.adobe.com/Graphs/1.0/">
	<!ENTITY ns_vars "http://ns.adobe.com/Variables/1.0/">
	<!ENTITY ns_imrep "http://ns.adobe.com/ImageReplacement/1.0/">
	<!ENTITY ns_sfw "http://ns.adobe.com/SaveForWeb/1.0/">
	<!ENTITY ns_custom "http://ns.adobe.com/GenericCustomNamespace/1.0/">
	<!ENTITY ns_adobe_xpath "http://ns.adobe.com/XPath/1.0/">
]>
<svg version="1.1" id="Layer_1" xmlns:x="&ns_extend;" xmlns:i="&ns_ai;" xmlns:graph="&ns_graphs;"
	 xmlns="http://www.w3.org/2000/svg" xmlns:xlink="http://www.w3.org/1999/xlink" x="0px" y="0px"
	 viewBox="0 0 500.8695984 156.7377014" style="enable-background:new 0 0 500.8695984 156.7377014;" xml:space="preserve">
<style type="text/css">
	.st0{fill:#FF4438;}
</style>
<metadata>
	<sfw  xmlns="&ns_sfw;">
		<slices></slices>
		<sliceSourceBounds  bottomLeftOrigin="true" height="156.7376557" width="500.8696434" x="0" y="-156.7376557">
			</sliceSourceBounds>
	</sfw>
</metadata>
<path class="st0" d="M409.5473022,36.9175453c4.7496033-8.4197903,12.5217285-17.487257,15.3283386-20.2938538
	c12.9535217,5.3973007,25.043457,16.4077988,23.3163452,19.2143936
	c-4.9655151,8.2038994-12.521759,17.4872589-15.3283386,20.2938576
	C419.9101257,50.734642,407.8201599,39.9400368,409.5473022,36.9175453z M500.8696289,74.0509872
	c-1.5112305,7.340332-10.5787048,15.5442276-14.4647522,16.8395844c-3.2383728-6.9085464-6.9085388-11.010498-10.3628235-11.010498
	c-4.3178406,0-4.5337219,3.0224915-4.5337219,6.9085464c0,6.9085464,4.9655151,22.0209885,4.9655151,37.7811127
	c0,17.2713623-12.0899658,30.0090027-30.6566772,30.0090027c-17.0014954,0-26.3961792-11.1448975-30.5870972-28.9498825
	c-11.1058044,19.9014969-27.346405,28.9498825-39.7937317,28.9498825c-19.4591675,0-24.039093-14.3832245-23.5775757-28.971756
	c-7.8193359,13.818512-22.8697815,28.971756-37.3039856,28.971756c-14.7346497,0-19.9394531-12.8251801-18.7459412-27.7612152
	c-8.8279419,16.4443207-24.7976379,27.7612152-40.1926117,27.7612152c-16.7059021,0-24.9747467-13.2711487-22.2988586-29.7207947
	c-11.2388306,13.8138275-32.1601257,29.7207947-53.9110413,29.7207947c-24.8005981,0-35.5960541-13.3733978-36.8755951-30.131546
	c-11.969986,19.1845551-28.104126,30.7792206-47.322319,30.7792206c-27.7423477,0-37.6651573-24.6698303-39.1091499-44.8493118
	c-10.2816467,13.7684402-21.8411522,28.0531082-36.0212975,43.9857407
	c-1.5112457,1.5112457-2.8065987,2.3748169-4.3178425,2.3748169c-4.965518,0-15.1124458-22.0209961-15.7601223-30.2248917
	c5.7586684-8.9360123,52.7942581-59.6965332,72.3982697-81.557663C59.1548538,48.95121,45.5007324,56.9208755,28.2818642,69.3013611
	c-3.0224895,2.1589203-11.4422817-17.4872589-11.2263889-32.5997047
	c19.8620701-14.6806641,50.0869675-23.9640236,74.4827728-23.9640236c34.1109467,0,53.7571335,18.9985046,53.7571335,45.3373375
	c0,22.0209923-18.3508301,46.2009087-45.1214523,47.0644798c-13.9197693,0.3615723-22.8411255-7.4522324-27.4041672-17.1012802
	c0.5454254,14.923172,8.3042526,33.2931824,29.1313019,33.2931824c24.1799164,0,34.9745178-15.5442276,53.1094513-38.2128983
	c13.8170929-17.0554733,29.7931213-32.167923,53.1094666-32.167923c14.2488708,0,23.9640198,8.8515778,23.9640198,22.2368851
	c0,16.1919098-18.9985046,38.6446838-45.5532379,38.6446838c-4.5354156,0-8.6694183-0.5975494-12.1591034-1.7787399
	c-0.0879211,0.6808853-0.1467438,1.3503799-0.1467438,1.9946365c0,7.556221,2.8065948,12.0899506,15.112442,12.0899506
	c18.1349335,0,35.1904144-10.7946014,55.9160614-36.053978c20.2938538-24.8275871,35.6221924-35.6221924,51.8140869-35.6221924
	c10.9299622,0,19.2257996,5.9238014,22.8818359,15.9006958C341.6498718,37.0203285,360.0592957,14.8132229,375.6522217,0
	c15.3283386,6.4767628,26.3388367,19.2143955,23.3163452,21.8051014
	c-11.4422607,10.3628178-49.6551819,52.0299911-64.7676086,76.8575821
	c-3.8860779,6.4767685-7.5562439,13.6012039-7.5562439,17.055481c0,3.2383804,1.9430542,4.3178406,4.1019592,4.3178406
	c14.2488708,0,48.1439514-46.2009125,67.3583374-66.4947662c12.0899658,4.965519,24.395813,15.5442276,21.3733215,19.2143936
	c-15.9760132,18.9985046-28.065979,34.5427399-28.065979,43.39431c0,2.3748169,0.8635559,3.8860626,4.1019592,3.8860626
	c6.0449829,0,11.6581726-5.3973083,20.9415283-16.8395844c1.9430237-2.3748169,4.3178406-2.3748169,5.829071,1.2953491
	c4.1019592,9.9310379,10.1469421,15.3283386,14.8965759,15.3283386c5.6131897,0,8.4197693-4.9655151,8.4197693-12.5217361
	c0-9.0674667-1.9430237-20.725647-1.9430237-25.9070511c0-17.4872627,12.9535217-27.6341896,29.1454468-27.6341896
	C484.8936157,53.7571297,495.6882324,59.586216,500.8696289,74.0509872z M101.7695084,42.5596237
	C94.4985352,53.923687,87.7306137,64.5392914,80.8937531,74.8917847c3.7157059,2.0868683,8.4143066,3.6929321,14.5305481,3.6929321
	c11.4422836,0,23.9640198-6.2608643,23.9640198-18.9985008C119.3883209,51.856163,114.5906296,44.7296677,101.7695084,42.5596237z
	 M177.6557922,100.5352936c2.2689667,0.8765869,4.9328308,1.3657684,7.795517,1.3657684
	c15.3283386,0,25.6911469-11.6581726,25.6911469-19.4302826c0-3.454277-2.1589203-5.8290863-5.6131897-5.8290863
	C196.8676453,76.6416931,183.8030243,88.7969513,177.6557922,100.5352936z M306.1349792,84.4138031
	c0-4.3178406-2.3748169-6.9085464-6.2608643-6.9085464c-12.7376404,0-31.9520264,24.1799164-31.9520264,36.2698746
	c0,3.886055,2.158905,6.4767609,6.6926575,6.4767609C288.6477356,120.2518921,306.1349792,94.7766266,306.1349792,84.4138031z"/>
</svg>
