<?xml version="1.0" standalone="yes"?>

<svg version="1.1" viewBox="0.0 0.0 1112.971128608924 405.7742782152231" fill="none" stroke="none" stroke-linecap="square" stroke-miterlimit="10" xmlns="http://www.w3.org/2000/svg" xmlns:xlink="http://www.w3.org/1999/xlink"><clipPath id="p.0"><path d="m0 0l1112.9711 0l0 405.7743l-1112.9711 0l0 -405.7743z" clip-rule="nonzero"></path></clipPath><g clip-path="url(#p.0)"><path fill="#000000" fill-opacity="0.0" d="m0 0l1112.9711 0l0 405.7743l-1112.9711 0z" fill-rule="nonzero"></path><path fill="#b6d7a8" d="m18.799213 89.154854l196.15749 0l0 73.41732l-196.15749 0z" fill-rule="nonzero"></path><path stroke="#000000" stroke-width="1.0" stroke-linejoin="round" stroke-linecap="butt" d="m18.799213 89.154854l196.15749 0l0 73.41732l-196.15749 0z" fill-rule="nonzero"></path><path fill="#000000" d="m75.21875 128.40852l1.6875 -0.140625q0.125 1.015625 0.5625 1.671875q0.4375 0.65625 1.359375 1.0625q0.9375 0.40625 2.09375 0.40625q1.03125 0 1.8125 -0.3125q0.796875 -0.3125 1.1875 -0.84375q0.390625 -0.53125 0.390625 -1.15625q0 -0.640625 -0.375 -1.1093826q-0.375 -0.484375 -1.234375 -0.8125q-0.546875 -0.21875 -2.421875 -0.65625q-1.875 -0.453125 -2.625 -0.859375q-0.96875 -0.515625 -1.453125 -1.265625q-0.46875 -0.75 -0.46875 -1.6875q0 -1.03125 0.578125 -1.921875q0.59375 -0.90625 1.703125 -1.359375q1.125 -0.46875 2.5 -0.46875q1.515625 0 2.671875 0.484375q1.15625 0.484375 1.765625 1.4375q0.625 0.9375 0.671875 2.140625l-1.71875 0.125q-0.140625 -1.28125 -0.953125 -1.9375q-0.796875 -0.671875 -2.359375 -0.671875q-1.625 0 -2.375 0.609375q-0.75 0.59375 -0.75 1.4375q0 0.734375 0.53125 1.203125q0.515625 0.46875 2.703125 0.96875q2.203125 0.5 3.015625 0.875q1.1875 0.546875 1.75 1.390625q0.578125 0.828125 0.578125 1.9218826q0 1.09375 -0.625 2.0625q-0.625 0.953125 -1.796875 1.484375q-1.15625 0.53125 -2.609375 0.53125q-1.84375 0 -3.09375 -0.53125q-1.25 -0.546875 -1.96875 -1.625q-0.703125 -1.078125 -0.734375 -2.453125zm16.490448 2.875l0.234375 1.484375q-0.703125 0.140625 -1.265625 0.140625q-0.90625 0 -1.40625 -0.28125q-0.5 -0.296875 -0.703125 -0.75q-0.203125 -0.46875 -0.203125 -1.984375l0 -5.6562576l-1.234375 0l0 -1.3125l1.234375 0l0 -2.4375l1.65625 -1.0l0 3.4375l1.6875 0l0 1.3125l-1.6875 0l0 5.7500076q0 0.71875 0.078125 0.921875q0.09375 0.203125 0.296875 0.328125q0.203125 0.125 0.578125 0.125q0.265625 0 0.734375 -0.078125zm7.964554 0.28125q-0.9375 0.796875 -1.796875 1.125q-0.859375 0.3125 -1.84375 0.3125q-1.609375 0 -2.484375 -0.78125q-0.875 -0.796875 -0.875 -2.03125q0 -0.734375 0.328125 -1.328125q0.328125 -0.59375 0.859375 -0.9531326q0.53125 -0.359375 1.203125 -0.546875q0.5 -0.140625 1.484375 -0.25q2.03125 -0.25 2.984375 -0.578125q0 -0.34375 0 -0.4375q0 -1.015625 -0.46875 -1.4375q-0.640625 -0.5625 -1.90625 -0.5625q-1.171875 0 -1.734375 0.40625q-0.5625 0.40625 -0.828125 1.46875l-1.640625 -0.234375q0.234375 -1.046875 0.734375 -1.6875q0.515625 -0.640625 1.46875 -0.984375q0.96875 -0.359375 2.25 -0.359375q1.265625 0 2.046875 0.296875q0.78125 0.296875 1.15625 0.75q0.375 0.453125 0.515625 1.140625q0.09375 0.421875 0.09375 1.53125l0 2.2343826q0 2.328125 0.09375 2.953125q0.109375 0.609375 0.4375 1.171875l-1.75 0q-0.265625 -0.515625 -0.328125 -1.21875zm-0.140625 -3.7187576q-0.90625 0.35938263 -2.734375 0.6250076q-1.03125 0.140625 -1.453125 0.328125q-0.421875 0.1875 -0.65625 0.546875q-0.234375 0.359375 -0.234375 0.796875q0 0.671875 0.5 1.125q0.515625 0.4375 1.484375 0.4375q0.96875 0 1.71875 -0.421875q0.75 -0.4375 1.109375 -1.15625q0.265625 -0.578125 0.265625 -1.671875l0 -0.6093826zm7.735092 3.4375076l0.234375 1.484375q-0.703125 0.140625 -1.265625 0.140625q-0.90625 0 -1.40625 -0.28125q-0.5 -0.296875 -0.703125 -0.75q-0.203125 -0.46875 -0.203125 -1.984375l0 -5.6562576l-1.234375 0l0 -1.3125l1.234375 0l0 -2.4375l1.65625 -1.0l0 3.4375l1.6875 0l0 1.3125l-1.6875 0l0 5.7500076q0 0.71875 0.078125 0.921875q0.09375 0.203125 0.296875 0.328125q0.203125 0.125 0.578125 0.125q0.265625 0 0.734375 -0.078125zm8.277054 -1.671875l1.71875 0.21875q-0.40625 1.5 -1.515625 2.34375q-1.09375 0.828125 -2.8125 0.828125q-2.15625 0 -3.421875 -1.328125q-1.265625 -1.328125 -1.265625 -3.7343826q0 -2.484375 1.265625 -3.859375q1.28125 -1.375 3.328125 -1.375q1.984375 0 3.234375 1.34375q1.25 1.34375 1.25 3.796875q0 0.140625 -0.015625 0.43750763l-7.34375 0q0.09375 1.625 0.921875 2.484375q0.828125 0.859375 2.0625 0.859375q0.90625 0 1.546875 -0.46875q0.65625 -0.484375 1.046875 -1.546875zm-5.484375 -2.7031326l5.5 0q-0.109375 -1.234375 -0.625 -1.859375q-0.796875 -0.96875 -2.078125 -0.96875q-1.140625 0 -1.9375 0.78125q-0.78125 0.765625 -0.859375 2.046875zm9.110092 5.8750076l0 -9.859383l1.5 0l0 1.390625q0.453125 -0.71875 1.21875 -1.15625q0.78125 -0.453125 1.765625 -0.453125q1.09375 0 1.796875 0.453125q0.703125 0.453125 0.984375 1.28125q1.171875 -1.734375 3.046875 -1.734375q1.46875 0 2.25 0.8125q0.796875 0.8125 0.796875 2.5l0 6.7656326l-1.671875 0l0 -6.2031326q0 -1.0 -0.15625 -1.4375q-0.15625 -0.453125 -0.59375 -0.71875q-0.421875 -0.265625 -1.0 -0.265625q-1.03125 0 -1.71875 0.6875q-0.6875 0.6875 -0.6875 2.21875l0 5.7187576l-1.671875 0l0 -6.4062576q0 -1.109375 -0.40625 -1.65625q-0.40625 -0.5625 -1.34375 -0.5625q-0.703125 0 -1.3125 0.375q-0.59375 0.359375 -0.859375 1.078125q-0.265625 0.71875 -0.265625 2.0625l0 5.1093826l-1.671875 0zm22.290802 -3.171875l1.71875 0.21875q-0.40625 1.5 -1.515625 2.34375q-1.09375 0.828125 -2.8125 0.828125q-2.15625 0 -3.421875 -1.328125q-1.265625 -1.328125 -1.265625 -3.7343826q0 -2.484375 1.265625 -3.859375q1.28125 -1.375 3.328125 -1.375q1.984375 0 3.234375 1.34375q1.25 1.34375 1.25 3.796875q0 0.140625 -0.015625 0.43750763l-7.34375 0q0.09375 1.625 0.921875 2.484375q0.828125 0.859375 2.0625 0.859375q0.90625 0 1.546875 -0.46875q0.65625 -0.484375 1.046875 -1.546875zm-5.484375 -2.7031326l5.5 0q-0.109375 -1.234375 -0.625 -1.859375q-0.796875 -0.96875 -2.078125 -0.96875q-1.140625 0 -1.9375 0.78125q-0.78125 0.765625 -0.859375 2.046875zm9.110092 5.8750076l0 -9.859383l1.5 0l0 1.40625q1.09375 -1.625 3.140625 -1.625q0.890625 0 1.640625 0.328125q0.75 0.3125 1.109375 0.84375q0.375 0.515625 0.53125 1.21875q0.09375 0.46875 0.09375 1.625l0 6.0625076l-1.671875 0l0 -6.0000076q0 -1.015625 -0.203125 -1.515625q-0.1875 -0.515625 -0.6875 -0.8125q-0.5 -0.296875 -1.171875 -0.296875q-1.0625 0 -1.84375 0.671875q-0.765625 0.671875 -0.765625 2.578125l0 5.3750076l-1.671875 0zm14.031967 -1.5l0.234375 1.484375q-0.703125 0.140625 -1.265625 0.140625q-0.90625 0 -1.40625 -0.28125q-0.5 -0.296875 -0.703125 -0.75q-0.203125 -0.46875 -0.203125 -1.984375l0 -5.6562576l-1.234375 0l0 -1.3125l1.234375 0l0 -2.4375l1.65625 -1.0l0 3.4375l1.6875 0l0 1.3125l-1.6875 0l0 5.7500076q0 0.71875 0.078125 0.921875q0.09375 0.203125 0.296875 0.328125q0.203125 0.125 0.578125 0.125q0.265625 0 0.734375 -0.078125z" fill-rule="nonzero"></path><path fill="#c27ba0" d="m743.79395 17.816273l347.4016 0l0 46.015747l-347.4016 0z" fill-rule="nonzero"></path><path stroke="#000000" stroke-width="1.0" stroke-linejoin="round" stroke-linecap="butt" d="m743.79395 17.816273l347.4016 0l0 46.015747l-347.4016 0z" fill-rule="nonzero"></path><path fill="#000000" d="m876.99084 47.744144l0 -13.59375l6.03125 0q1.8125 0 2.75 0.359375q0.953125 0.359375 1.515625 1.296875q0.5625 0.921875 0.5625 2.046875q0 1.453125 -0.9375 2.453125q-0.921875 0.984375 -2.890625 1.25q0.71875 0.34375 1.09375 0.671875q0.78125 0.734375 1.484375 1.8125l2.375 3.703125l-2.265625 0l-1.796875 -2.828125q-0.796875 -1.21875 -1.3125 -1.875q-0.5 -0.65625 -0.90625 -0.90625q-0.40625 -0.265625 -0.8125 -0.359375q-0.3125 -0.078125 -1.015625 -0.078125l-2.078125 0l0 6.046875l-1.796875 0zm1.796875 -7.59375l3.859375 0q1.234375 0 1.921875 -0.25q0.703125 -0.265625 1.0625 -0.828125q0.375 -0.5625 0.375 -1.21875q0 -0.96875 -0.703125 -1.578125q-0.703125 -0.625 -2.21875 -0.625l-4.296875 0l0 4.5zm18.176086 4.421875l1.71875 0.21875q-0.40625 1.5 -1.515625 2.34375q-1.09375 0.828125 -2.8125 0.828125q-2.15625 0 -3.421875 -1.328125q-1.265625 -1.328125 -1.265625 -3.734375q0 -2.484375 1.265625 -3.859375q1.28125 -1.375 3.328125 -1.375q1.984375 0 3.234375 1.34375q1.25 1.34375 1.25 3.796875q0 0.140625 -0.015625 0.4375l-7.34375 0q0.09375 1.625 0.921875 2.484375q0.828125 0.859375 2.0625 0.859375q0.90625 0 1.546875 -0.46875q0.65625 -0.484375 1.046875 -1.546875zm-5.484375 -2.703125l5.5 0q-0.109375 -1.234375 -0.625 -1.859375q-0.796875 -0.96875 -2.078125 -0.96875q-1.140625 0 -1.9375 0.78125q-0.78125 0.765625 -0.859375 2.046875zm8.438232 2.9375l1.65625 -0.265625q0.140625 1.0 0.765625 1.53125q0.640625 0.515625 1.78125 0.515625q1.15625 0 1.703125 -0.46875q0.5625 -0.46875 0.5625 -1.09375q0 -0.5625 -0.484375 -0.890625q-0.34375 -0.21875 -1.703125 -0.5625q-1.84375 -0.46875 -2.5625 -0.796875q-0.703125 -0.34375 -1.078125 -0.9375q-0.359375 -0.609375 -0.359375 -1.328125q0 -0.65625 0.296875 -1.21875q0.3125 -0.5625 0.828125 -0.9375q0.390625 -0.28125 1.0625 -0.484375q0.671875 -0.203125 1.4375 -0.203125q1.171875 0 2.046875 0.34375q0.875 0.328125 1.28125 0.90625q0.421875 0.5625 0.578125 1.515625l-1.625 0.21875q-0.109375 -0.75 -0.65625 -1.171875q-0.53125 -0.4375 -1.5 -0.4375q-1.15625 0 -1.640625 0.390625q-0.484375 0.375 -0.484375 0.875q0 0.328125 0.203125 0.59375q0.203125 0.265625 0.640625 0.4375q0.25 0.09375 1.46875 0.4375q1.765625 0.46875 2.46875 0.765625q0.703125 0.296875 1.09375 0.875q0.40625 0.578125 0.40625 1.4375q0 0.828125 -0.484375 1.578125q-0.484375 0.734375 -1.40625 1.140625q-0.921875 0.390625 -2.078125 0.390625q-1.921875 0 -2.9375 -0.796875q-1.0 -0.796875 -1.28125 -2.359375zm10.0 6.71875l0 -13.640625l1.53125 0l0 1.28125q0.53125 -0.75 1.203125 -1.125q0.6875 -0.375 1.640625 -0.375q1.265625 0 2.234375 0.65625q0.96875 0.640625 1.453125 1.828125q0.5 1.1875 0.5 2.59375q0 1.515625 -0.546875 2.734375q-0.546875 1.203125 -1.578125 1.84375q-1.03125 0.640625 -2.171875 0.640625q-0.84375 0 -1.515625 -0.34375q-0.65625 -0.359375 -1.078125 -0.890625l0 4.796875l-1.671875 0zm1.515625 -8.65625q0 1.90625 0.765625 2.8125q0.78125 0.90625 1.875 0.90625q1.109375 0 1.890625 -0.9375q0.796875 -0.9375 0.796875 -2.921875q0 -1.875 -0.78125 -2.8125q-0.765625 -0.9375 -1.84375 -0.9375q-1.0625 0 -1.890625 1.0q-0.8125 1.0 -0.8125 2.890625zm8.235107 -0.046875q0 -2.734375 1.53125 -4.0625q1.265625 -1.09375 3.09375 -1.09375q2.03125 0 3.3125 1.34375q1.296875 1.328125 1.296875 3.671875q0 1.90625 -0.578125 3.0q-0.5625 1.078125 -1.65625 1.6875q-1.078125 0.59375 -2.375 0.59375q-2.0625 0 -3.34375 -1.328125q-1.28125 -1.328125 -1.28125 -3.8125zm1.71875 0q0 1.890625 0.828125 2.828125q0.828125 0.9375 2.078125 0.9375q1.25 0 2.0625 -0.9375q0.828125 -0.953125 0.828125 -2.890625q0 -1.828125 -0.828125 -2.765625q-0.828125 -0.9375 -2.0625 -0.9375q-1.25 0 -2.078125 0.9375q-0.828125 0.9375 -0.828125 2.828125zm9.281921 4.921875l0 -9.859375l1.5 0l0 1.40625q1.09375 -1.625 3.140625 -1.625q0.890625 0 1.640625 0.328125q0.75 0.3125 1.109375 0.84375q0.375 0.515625 0.53125 1.21875q0.09375 0.46875 0.09375 1.625l0 6.0625l-1.671875 0l0 -6.0q0 -1.015625 -0.203125 -1.515625q-0.1875 -0.515625 -0.6875 -0.8125q-0.5 -0.296875 -1.171875 -0.296875q-1.0625 0 -1.84375 0.671875q-0.765625 0.671875 -0.765625 2.578125l0 5.375l-1.671875 0zm9.703857 -2.9375l1.65625 -0.265625q0.140625 1.0 0.765625 1.53125q0.640625 0.515625 1.78125 0.515625q1.15625 0 1.703125 -0.46875q0.5625 -0.46875 0.5625 -1.09375q0 -0.5625 -0.484375 -0.890625q-0.34375 -0.21875 -1.703125 -0.5625q-1.84375 -0.46875 -2.5625 -0.796875q-0.703125 -0.34375 -1.078125 -0.9375q-0.359375 -0.609375 -0.359375 -1.328125q0 -0.65625 0.296875 -1.21875q0.3125 -0.5625 0.828125 -0.9375q0.390625 -0.28125 1.0625 -0.484375q0.671875 -0.203125 1.4375 -0.203125q1.171875 0 2.046875 0.34375q0.875 0.328125 1.28125 0.90625q0.421875 0.5625 0.578125 1.515625l-1.625 0.21875q-0.109375 -0.75 -0.65625 -1.171875q-0.53125 -0.4375 -1.5 -0.4375q-1.15625 0 -1.640625 0.390625q-0.484375 0.375 -0.484375 0.875q0 0.328125 0.203125 0.59375q0.203125 0.265625 0.640625 0.4375q0.25 0.09375 1.46875 0.4375q1.765625 0.46875 2.46875 0.765625q0.703125 0.296875 1.09375 0.875q0.40625 0.578125 0.40625 1.4375q0 0.828125 -0.484375 1.578125q-0.484375 0.734375 -1.40625 1.140625q-0.921875 0.390625 -2.078125 0.390625q-1.921875 0 -2.9375 -0.796875q-1.0 -0.796875 -1.28125 -2.359375zm16.75 -0.234375l1.71875 0.21875q-0.40625 1.5 -1.515625 2.34375q-1.09375 0.828125 -2.8125 0.828125q-2.15625 0 -3.421875 -1.328125q-1.265625 -1.328125 -1.265625 -3.734375q0 -2.484375 1.265625 -3.859375q1.28125 -1.375 3.328125 -1.375q1.984375 0 3.234375 1.34375q1.25 1.34375 1.25 3.796875q0 0.140625 -0.015625 0.4375l-7.34375 0q0.09375 1.625 0.921875 2.484375q0.828125 0.859375 2.0625 0.859375q0.90625 0 1.546875 -0.46875q0.65625 -0.484375 1.046875 -1.546875zm-5.484375 -2.703125l5.5 0q-0.109375 -1.234375 -0.625 -1.859375q-0.796875 -0.96875 -2.078125 -0.96875q-1.140625 0 -1.9375 0.78125q-0.78125 0.765625 -0.859375 2.046875z" fill-rule="nonzero"></path><path fill="#c27ba0" d="m743.79395 102.855644l347.4016 0l0 46.01574l-347.4016 0z" fill-rule="nonzero"></path><path stroke="#000000" stroke-width="1.0" stroke-linejoin="round" stroke-linecap="butt" d="m743.79395 102.855644l347.4016 0l0 46.01574l-347.4016 0z" fill-rule="nonzero"></path><path fill="#000000" d="m876.99084 132.78351l0 -13.593742l6.03125 0q1.8125 0 2.75 0.359375q0.953125 0.359375 1.515625 1.296875q0.5625 0.921875 0.5625 2.046875q0 1.453125 -0.9375 2.453125q-0.921875 0.984375 -2.890625 1.25q0.71875 0.34375 1.09375 0.671875q0.78125 0.7343674 1.484375 1.8124924l2.375 3.703125l-2.265625 0l-1.796875 -2.828125q-0.796875 -1.21875 -1.3125 -1.875q-0.5 -0.6562424 -0.90625 -0.9062424q-0.40625 -0.265625 -0.8125 -0.359375q-0.3125 -0.078125 -1.015625 -0.078125l-2.078125 0l0 6.0468674l-1.796875 0zm1.796875 -7.5937424l3.859375 0q1.234375 0 1.921875 -0.25q0.703125 -0.265625 1.0625 -0.828125q0.375 -0.5625 0.375 -1.21875q0 -0.96875 -0.703125 -1.578125q-0.703125 -0.625 -2.21875 -0.625l-4.296875 0l0 4.5zm18.176086 4.4218674l1.71875 0.21875q-0.40625 1.5 -1.515625 2.34375q-1.09375 0.828125 -2.8125 0.828125q-2.15625 0 -3.421875 -1.328125q-1.265625 -1.328125 -1.265625 -3.7343674q0 -2.484375 1.265625 -3.859375q1.28125 -1.375 3.328125 -1.375q1.984375 0 3.234375 1.34375q1.25 1.34375 1.25 3.796875q0 0.140625 -0.015625 0.43749237l-7.34375 0q0.09375 1.625 0.921875 2.484375q0.828125 0.859375 2.0625 0.859375q0.90625 0 1.546875 -0.46875q0.65625 -0.484375 1.046875 -1.546875zm-5.484375 -2.7031174l5.5 0q-0.109375 -1.234375 -0.625 -1.859375q-0.796875 -0.96875 -2.078125 -0.96875q-1.140625 0 -1.9375 0.78125q-0.78125 0.765625 -0.859375 2.046875zm8.438232 2.9374924l1.65625 -0.265625q0.140625 1.0 0.765625 1.53125q0.640625 0.515625 1.78125 0.515625q1.15625 0 1.703125 -0.46875q0.5625 -0.46875 0.5625 -1.09375q0 -0.5625 -0.484375 -0.890625q-0.34375 -0.21875 -1.703125 -0.5625q-1.84375 -0.46875 -2.5625 -0.7968674q-0.703125 -0.34375 -1.078125 -0.9375q-0.359375 -0.609375 -0.359375 -1.328125q0 -0.65625 0.296875 -1.21875q0.3125 -0.5625 0.828125 -0.9375q0.390625 -0.28125 1.0625 -0.484375q0.671875 -0.203125 1.4375 -0.203125q1.171875 0 2.046875 0.34375q0.875 0.328125 1.28125 0.90625q0.421875 0.5625 0.578125 1.515625l-1.625 0.21875q-0.109375 -0.75 -0.65625 -1.171875q-0.53125 -0.4375 -1.5 -0.4375q-1.15625 0 -1.640625 0.390625q-0.484375 0.375 -0.484375 0.875q0 0.328125 0.203125 0.59375q0.203125 0.265625 0.640625 0.4375q0.25 0.09375 1.46875 0.4375q1.765625 0.46875 2.46875 0.765625q0.703125 0.296875 1.09375 0.8749924q0.40625 0.578125 0.40625 1.4375q0 0.828125 -0.484375 1.578125q-0.484375 0.734375 -1.40625 1.140625q-0.921875 0.390625 -2.078125 0.390625q-1.921875 0 -2.9375 -0.796875q-1.0 -0.796875 -1.28125 -2.359375zm10.0 6.71875l0 -13.640617l1.53125 0l0 1.28125q0.53125 -0.75 1.203125 -1.125q0.6875 -0.375 1.640625 -0.375q1.265625 0 2.234375 0.65625q0.96875 0.640625 1.453125 1.828125q0.5 1.1875 0.5 2.59375q0 1.5156174 -0.546875 2.7343674q-0.546875 1.203125 -1.578125 1.84375q-1.03125 0.640625 -2.171875 0.640625q-0.84375 0 -1.515625 -0.34375q-0.65625 -0.359375 -1.078125 -0.890625l0 4.796875l-1.671875 0zm1.515625 -8.656242q0 1.9062424 0.765625 2.8124924q0.78125 0.90625 1.875 0.90625q1.109375 0 1.890625 -0.9375q0.796875 -0.9375 0.796875 -2.9218674q0 -1.875 -0.78125 -2.8125q-0.765625 -0.9375 -1.84375 -0.9375q-1.0625 0 -1.890625 1.0q-0.8125 1.0 -0.8125 2.890625zm8.235107 -0.046875q0 -2.734375 1.53125 -4.0625q1.265625 -1.09375 3.09375 -1.09375q2.03125 0 3.3125 1.34375q1.296875 1.328125 1.296875 3.671875q0 1.9062424 -0.578125 2.9999924q-0.5625 1.078125 -1.65625 1.6875q-1.078125 0.59375 -2.375 0.59375q-2.0625 0 -3.34375 -1.328125q-1.28125 -1.328125 -1.28125 -3.8124924zm1.71875 0q0 1.8906174 0.828125 2.8281174q0.828125 0.9375 2.078125 0.9375q1.25 0 2.0625 -0.9375q0.828125 -0.953125 0.828125 -2.8906174q0 -1.828125 -0.828125 -2.765625q-0.828125 -0.9375 -2.0625 -0.9375q-1.25 0 -2.078125 0.9375q-0.828125 0.9375 -0.828125 2.828125zm9.281921 4.9218674l0 -9.859367l1.5 0l0 1.40625q1.09375 -1.625 3.140625 -1.625q0.890625 0 1.640625 0.328125q0.75 0.3125 1.109375 0.84375q0.375 0.515625 0.53125 1.21875q0.09375 0.46875 0.09375 1.625l0 6.0624924l-1.671875 0l0 -5.9999924q0 -1.015625 -0.203125 -1.515625q-0.1875 -0.515625 -0.6875 -0.8125q-0.5 -0.296875 -1.171875 -0.296875q-1.0625 0 -1.84375 0.671875q-0.765625 0.671875 -0.765625 2.578125l0 5.3749924l-1.671875 0zm9.703857 -2.9375l1.65625 -0.265625q0.140625 1.0 0.765625 1.53125q0.640625 0.515625 1.78125 0.515625q1.15625 0 1.703125 -0.46875q0.5625 -0.46875 0.5625 -1.09375q0 -0.5625 -0.484375 -0.890625q-0.34375 -0.21875 -1.703125 -0.5625q-1.84375 -0.46875 -2.5625 -0.7968674q-0.703125 -0.34375 -1.078125 -0.9375q-0.359375 -0.609375 -0.359375 -1.328125q0 -0.65625 0.296875 -1.21875q0.3125 -0.5625 0.828125 -0.9375q0.390625 -0.28125 1.0625 -0.484375q0.671875 -0.203125 1.4375 -0.203125q1.171875 0 2.046875 0.34375q0.875 0.328125 1.28125 0.90625q0.421875 0.5625 0.578125 1.515625l-1.625 0.21875q-0.109375 -0.75 -0.65625 -1.171875q-0.53125 -0.4375 -1.5 -0.4375q-1.15625 0 -1.640625 0.390625q-0.484375 0.375 -0.484375 0.875q0 0.328125 0.203125 0.59375q0.203125 0.265625 0.640625 0.4375q0.25 0.09375 1.46875 0.4375q1.765625 0.46875 2.46875 0.765625q0.703125 0.296875 1.09375 0.8749924q0.40625 0.578125 0.40625 1.4375q0 0.828125 -0.484375 1.578125q-0.484375 0.734375 -1.40625 1.140625q-0.921875 0.390625 -2.078125 0.390625q-1.921875 0 -2.9375 -0.796875q-1.0 -0.796875 -1.28125 -2.359375zm16.75 -0.234375l1.71875 0.21875q-0.40625 1.5 -1.515625 2.34375q-1.09375 0.828125 -2.8125 0.828125q-2.15625 0 -3.421875 -1.328125q-1.265625 -1.328125 -1.265625 -3.7343674q0 -2.484375 1.265625 -3.859375q1.28125 -1.375 3.328125 -1.375q1.984375 0 3.234375 1.34375q1.25 1.34375 1.25 3.796875q0 0.140625 -0.015625 0.43749237l-7.34375 0q0.09375 1.625 0.921875 2.484375q0.828125 0.859375 2.0625 0.859375q0.90625 0 1.546875 -0.46875q0.65625 -0.484375 1.046875 -1.546875zm-5.484375 -2.7031174l5.5 0q-0.109375 -1.234375 -0.625 -1.859375q-0.796875 -0.96875 -2.078125 -0.96875q-1.140625 0 -1.9375 0.78125q-0.78125 0.765625 -0.859375 2.046875z" fill-rule="nonzero"></path><path fill="#c27ba0" d="m743.79395 187.89502l347.4016 0l0 46.015747l-347.4016 0z" fill-rule="nonzero"></path><path stroke="#000000" stroke-width="1.0" stroke-linejoin="round" stroke-linecap="butt" d="m743.79395 187.89502l347.4016 0l0 46.015747l-347.4016 0z" fill-rule="nonzero"></path><path fill="#000000" d="m876.99084 217.82289l0 -13.59375l6.03125 0q1.8125 0 2.75 0.359375q0.953125 0.359375 1.515625 1.296875q0.5625 0.921875 0.5625 2.046875q0 1.453125 -0.9375 2.453125q-0.921875 0.984375 -2.890625 1.25q0.71875 0.34375 1.09375 0.671875q0.78125 0.734375 1.484375 1.8125l2.375 3.703125l-2.265625 0l-1.796875 -2.828125q-0.796875 -1.21875 -1.3125 -1.875q-0.5 -0.65625 -0.90625 -0.90625q-0.40625 -0.265625 -0.8125 -0.359375q-0.3125 -0.078125 -1.015625 -0.078125l-2.078125 0l0 6.046875l-1.796875 0zm1.796875 -7.59375l3.859375 0q1.234375 0 1.921875 -0.25q0.703125 -0.265625 1.0625 -0.828125q0.375 -0.5625 0.375 -1.21875q0 -0.96875 -0.703125 -1.578125q-0.703125 -0.625 -2.21875 -0.625l-4.296875 0l0 4.5zm18.176086 4.421875l1.71875 0.21875q-0.40625 1.5 -1.515625 2.34375q-1.09375 0.828125 -2.8125 0.828125q-2.15625 0 -3.421875 -1.328125q-1.265625 -1.328125 -1.265625 -3.734375q0 -2.484375 1.265625 -3.859375q1.28125 -1.375 3.328125 -1.375q1.984375 0 3.234375 1.34375q1.25 1.34375 1.25 3.796875q0 0.140625 -0.015625 0.4375l-7.34375 0q0.09375 1.625 0.921875 2.484375q0.828125 0.859375 2.0625 0.859375q0.90625 0 1.546875 -0.46875q0.65625 -0.484375 1.046875 -1.546875zm-5.484375 -2.703125l5.5 0q-0.109375 -1.234375 -0.625 -1.859375q-0.796875 -0.96875 -2.078125 -0.96875q-1.140625 0 -1.9375 0.78125q-0.78125 0.765625 -0.859375 2.046875zm8.438232 2.9375l1.65625 -0.265625q0.140625 1.0 0.765625 1.53125q0.640625 0.515625 1.78125 0.515625q1.15625 0 1.703125 -0.46875q0.5625 -0.46875 0.5625 -1.09375q0 -0.5625 -0.484375 -0.890625q-0.34375 -0.21875 -1.703125 -0.5625q-1.84375 -0.46875 -2.5625 -0.796875q-0.703125 -0.34375 -1.078125 -0.9375q-0.359375 -0.609375 -0.359375 -1.328125q0 -0.65625 0.296875 -1.21875q0.3125 -0.5625 0.828125 -0.9375q0.390625 -0.28125 1.0625 -0.484375q0.671875 -0.203125 1.4375 -0.203125q1.171875 0 2.046875 0.34375q0.875 0.328125 1.28125 0.90625q0.421875 0.5625 0.578125 1.515625l-1.625 0.21875q-0.109375 -0.75 -0.65625 -1.171875q-0.53125 -0.4375 -1.5 -0.4375q-1.15625 0 -1.640625 0.390625q-0.484375 0.375 -0.484375 0.875q0 0.328125 0.203125 0.59375q0.203125 0.265625 0.640625 0.4375q0.25 0.09375 1.46875 0.4375q1.765625 0.46875 2.46875 0.765625q0.703125 0.296875 1.09375 0.875q0.40625 0.578125 0.40625 1.4375q0 0.828125 -0.484375 1.578125q-0.484375 0.734375 -1.40625 1.140625q-0.921875 0.390625 -2.078125 0.390625q-1.921875 0 -2.9375 -0.796875q-1.0 -0.796875 -1.28125 -2.359375zm10.0 6.71875l0 -13.640625l1.53125 0l0 1.28125q0.53125 -0.75 1.203125 -1.125q0.6875 -0.375 1.640625 -0.375q1.265625 0 2.234375 0.65625q0.96875 0.640625 1.453125 1.828125q0.5 1.1875 0.5 2.59375q0 1.515625 -0.546875 2.734375q-0.546875 1.203125 -1.578125 1.84375q-1.03125 0.640625 -2.171875 0.640625q-0.84375 0 -1.515625 -0.34375q-0.65625 -0.359375 -1.078125 -0.890625l0 4.796875l-1.671875 0zm1.515625 -8.65625q0 1.90625 0.765625 2.8125q0.78125 0.90625 1.875 0.90625q1.109375 0 1.890625 -0.9375q0.796875 -0.9375 0.796875 -2.921875q0 -1.875 -0.78125 -2.8125q-0.765625 -0.9375 -1.84375 -0.9375q-1.0625 0 -1.890625 1.0q-0.8125 1.0 -0.8125 2.890625zm8.235107 -0.046875q0 -2.734375 1.53125 -4.0625q1.265625 -1.09375 3.09375 -1.09375q2.03125 0 3.3125 1.34375q1.296875 1.328125 1.296875 3.671875q0 1.90625 -0.578125 3.0q-0.5625 1.078125 -1.65625 1.6875q-1.078125 0.59375 -2.375 0.59375q-2.0625 0 -3.34375 -1.328125q-1.28125 -1.328125 -1.28125 -3.8125zm1.71875 0q0 1.890625 0.828125 2.828125q0.828125 0.9375 2.078125 0.9375q1.25 0 2.0625 -0.9375q0.828125 -0.953125 0.828125 -2.890625q0 -1.828125 -0.828125 -2.765625q-0.828125 -0.9375 -2.0625 -0.9375q-1.25 0 -2.078125 0.9375q-0.828125 0.9375 -0.828125 2.828125zm9.281921 4.921875l0 -9.859375l1.5 0l0 1.40625q1.09375 -1.625 3.140625 -1.625q0.890625 0 1.640625 0.328125q0.75 0.3125 1.109375 0.84375q0.375 0.515625 0.53125 1.21875q0.09375 0.46875 0.09375 1.625l0 6.0625l-1.671875 0l0 -6.0q0 -1.015625 -0.203125 -1.515625q-0.1875 -0.515625 -0.6875 -0.8125q-0.5 -0.296875 -1.171875 -0.296875q-1.0625 0 -1.84375 0.671875q-0.765625 0.671875 -0.765625 2.578125l0 5.375l-1.671875 0zm9.703857 -2.9375l1.65625 -0.265625q0.140625 1.0 0.765625 1.53125q0.640625 0.515625 1.78125 0.515625q1.15625 0 1.703125 -0.46875q0.5625 -0.46875 0.5625 -1.09375q0 -0.5625 -0.484375 -0.890625q-0.34375 -0.21875 -1.703125 -0.5625q-1.84375 -0.46875 -2.5625 -0.796875q-0.703125 -0.34375 -1.078125 -0.9375q-0.359375 -0.609375 -0.359375 -1.328125q0 -0.65625 0.296875 -1.21875q0.3125 -0.5625 0.828125 -0.9375q0.390625 -0.28125 1.0625 -0.484375q0.671875 -0.203125 1.4375 -0.203125q1.171875 0 2.046875 0.34375q0.875 0.328125 1.28125 0.90625q0.421875 0.5625 0.578125 1.515625l-1.625 0.21875q-0.109375 -0.75 -0.65625 -1.171875q-0.53125 -0.4375 -1.5 -0.4375q-1.15625 0 -1.640625 0.390625q-0.484375 0.375 -0.484375 0.875q0 0.328125 0.203125 0.59375q0.203125 0.265625 0.640625 0.4375q0.25 0.09375 1.46875 0.4375q1.765625 0.46875 2.46875 0.765625q0.703125 0.296875 1.09375 0.875q0.40625 0.578125 0.40625 1.4375q0 0.828125 -0.484375 1.578125q-0.484375 0.734375 -1.40625 1.140625q-0.921875 0.390625 -2.078125 0.390625q-1.921875 0 -2.9375 -0.796875q-1.0 -0.796875 -1.28125 -2.359375zm16.75 -0.234375l1.71875 0.21875q-0.40625 1.5 -1.515625 2.34375q-1.09375 0.828125 -2.8125 0.828125q-2.15625 0 -3.421875 -1.328125q-1.265625 -1.328125 -1.265625 -3.734375q0 -2.484375 1.265625 -3.859375q1.28125 -1.375 3.328125 -1.375q1.984375 0 3.234375 1.34375q1.25 1.34375 1.25 3.796875q0 0.140625 -0.015625 0.4375l-7.34375 0q0.09375 1.625 0.921875 2.484375q0.828125 0.859375 2.0625 0.859375q0.90625 0 1.546875 -0.46875q0.65625 -0.484375 1.046875 -1.546875zm-5.484375 -2.703125l5.5 0q-0.109375 -1.234375 -0.625 -1.859375q-0.796875 -0.96875 -2.078125 -0.96875q-1.140625 0 -1.9375 0.78125q-0.78125 0.765625 -0.859375 2.046875z" fill-rule="nonzero"></path><path fill="#000000" fill-opacity="0.0" d="m214.9567 125.86352l264.4199 0l0 85.039375l264.43048 0" fill-rule="nonzero"></path><path stroke="#000000" stroke-width="2.0" stroke-linejoin="round" stroke-linecap="butt" d="m214.9567 125.86352l264.4199 0l0 85.039375l252.43048 0" fill-rule="evenodd"></path><path fill="#000000" stroke="#000000" stroke-width="2.0" stroke-linecap="butt" d="m731.80707 214.20634l9.076233 -3.3034515l-9.076233 -3.3034668z" fill-rule="evenodd"></path><path fill="#000000" fill-opacity="0.0" d="m214.9567 125.86352l264.4199 0l0 -85.03937l264.43048 0" fill-rule="nonzero"></path><path stroke="#000000" stroke-width="2.0" stroke-linejoin="round" stroke-linecap="butt" d="m214.9567 125.86352l264.4199 0l0 -85.03937l252.43048 0" fill-rule="evenodd"></path><path fill="#000000" stroke="#000000" stroke-width="2.0" stroke-linecap="butt" d="m731.80707 44.127613l9.076233 -3.3034668l-9.076233 -3.303463z" fill-rule="evenodd"></path><path fill="#000000" fill-opacity="0.0" d="m214.9567 125.86352l264.4199 0l0 0.06298828l264.43048 0" fill-rule="nonzero"></path><path stroke="#000000" stroke-width="2.0" stroke-linejoin="round" stroke-linecap="butt" d="m214.9567 125.86352l264.4199 0l0 0.06298828l252.43048 0" fill-rule="evenodd"></path><path fill="#000000" stroke="#000000" stroke-width="2.0" stroke-linecap="butt" d="m731.80707 129.22998l9.076233 -3.3034744l-9.076233 -3.3034592z" fill-rule="evenodd"></path><path fill="#000000" fill-opacity="0.0" d="m227.6811 89.154854l179.27559 0l0 25.858269l-179.27559 0z" fill-rule="nonzero"></path><path fill="#000000" d="m243.07173 104.0436l0 2.015625l-2.265625 0l0 -2.015625l2.265625 0zm0.25 3.609375l0 6.515625l2.28125 0q0.6875 0 0.984375 0.265625q0.296875 0.265625 0.296875 0.6875q0 0.421875 -0.296875 0.6875q-0.296875 0.265625 -0.984375 0.265625l-6.46875 0q-0.6875 0 -0.984375 -0.265625q-0.28125 -0.265625 -0.28125 -0.6875q0 -0.421875 0.28125 -0.6875q0.296875 -0.265625 0.984375 -0.265625l2.28125 0l0 -4.609375l-1.53125 0q-0.671875 0 -0.96875 -0.265625q-0.296875 -0.265625 -0.296875 -0.703125q0 -0.40625 0.296875 -0.671875q0.296875 -0.265625 0.96875 -0.265625l3.4375 0zm8.336197 0l0 0.640625q0.515625 -0.453125 1.140625 -0.671875q0.625 -0.21875 1.359375 -0.21875q1.6875 0 2.671875 1.046875q0.78125 0.828125 0.78125 2.1875l0 3.53125q0.59375 0 0.875 0.265625q0.296875 0.265625 0.296875 0.6875q0 0.421875 -0.296875 0.6875q-0.28125 0.265625 -0.96875 0.265625l-1.71875 0q-0.6875 0 -0.984375 -0.265625q-0.28125 -0.265625 -0.28125 -0.6875q0 -0.421875 0.28125 -0.6875q0.296875 -0.265625 0.890625 -0.265625l0 -3.59375q0 -0.609375 -0.328125 -0.90625q-0.4375 -0.359375 -1.3125 -0.359375q-0.65625 0 -1.15625 0.25q-0.5 0.25 -1.25 1.078125l0 3.53125q0.734375 0 0.9375 0.140625q0.453125 0.28125 0.453125 0.8125q0 0.421875 -0.296875 0.6875q-0.28125 0.265625 -0.96875 0.265625l-2.15625 0q-0.6875 0 -0.984375 -0.265625q-0.296875 -0.265625 -0.296875 -0.6875q0 -0.515625 0.453125 -0.8125q0.21875 -0.140625 0.953125 -0.140625l0 -4.609375q-0.609375 0 -0.890625 -0.265625q-0.28125 -0.28125 -0.28125 -0.703125q0 -0.40625 0.28125 -0.671875q0.296875 -0.265625 0.984375 -0.265625l1.8125 0zm18.383057 14.125l-10.453125 0q-0.6875 0 -0.96875 -0.265625q-0.296875 -0.25 -0.296875 -0.671875q0 -0.4375 0.296875 -0.703125q0.28125 -0.265625 0.96875 -0.265625l10.453125 0q0.671875 0 0.96875 0.265625q0.296875 0.265625 0.296875 0.703125q0 0.40625 -0.296875 0.671875q-0.28125 0.265625 -0.96875 0.265625zm5.539337 -14.125l0 1.1875q1.1875 -0.859375 1.875 -1.140625q0.703125 -0.296875 1.296875 -0.296875q0.9375 0 1.796875 0.6875q0.59375 0.453125 0.59375 0.9375q0 0.40625 -0.28125 0.703125q-0.28125 0.28125 -0.671875 0.28125q-0.359375 0 -0.75 -0.34375q-0.390625 -0.359375 -0.6875 -0.359375q-0.40625 0 -1.203125 0.5q-0.78125 0.5 -1.96875 1.5l0 2.859375l2.703125 0q0.6875 0 0.96875 0.265625q0.296875 0.265625 0.296875 0.6875q0 0.421875 -0.296875 0.6875q-0.28125 0.265625 -0.96875 0.265625l-5.75 0q-0.671875 0 -0.96875 -0.265625q-0.296875 -0.265625 -0.296875 -0.6875q0 -0.421875 0.296875 -0.6875q0.296875 -0.265625 0.96875 -0.265625l1.140625 0l0 -4.609375l-0.6875 0q-0.6875 0 -0.984375 -0.265625q-0.28125 -0.265625 -0.28125 -0.703125q0 -0.40625 0.28125 -0.671875q0.296875 -0.265625 0.984375 -0.265625l2.59375 0zm16.351807 5.171875l-7.796875 0q0.296875 0.75 1.046875 1.203125q0.765625 0.453125 2.046875 0.453125q1.0625 0 2.8125 -0.453125q0.734375 -0.1875 1.0 -0.1875q0.390625 0 0.640625 0.265625q0.265625 0.265625 0.265625 0.671875q0 0.375 -0.28125 0.640625q-0.375 0.34375 -1.8125 0.65625q-1.4375 0.3125 -2.765625 0.3125q-2.28125 0 -3.65625 -1.28125q-1.359375 -1.296875 -1.359375 -3.1875q0 -2.0 1.484375 -3.25q1.484375 -1.265625 3.40625 -1.265625q1.15625 0 2.125 0.40625q0.96875 0.40625 1.453125 0.875q0.65625 0.6875 1.09375 1.703125q0.296875 0.703125 0.296875 1.640625l0 0.796875zm-2.09375 -1.90625q-0.4375 -0.8125 -1.15625 -1.203125q-0.703125 -0.40625 -1.671875 -0.40625q-0.96875 0 -1.671875 0.40625q-0.703125 0.390625 -1.140625 1.203125l5.640625 0zm10.570587 -1.046875q-0.453125 -0.28125 -0.96875 -0.421875q-0.515625 -0.140625 -1.0625 -0.140625q-1.109375 0 -1.75 0.359375q-0.296875 0.15625 -0.296875 0.34375q0 0.203125 0.390625 0.40625q0.296875 0.15625 1.328125 0.296875q1.890625 0.25 2.640625 0.515625q0.96875 0.34375 1.5 1.03125q0.53125 0.671875 0.53125 1.421875q0 1.015625 -0.90625 1.703125q-1.28125 1.0 -3.34375 1.0q-0.828125 0 -1.53125 -0.15625q-0.703125 -0.140625 -1.28125 -0.421875q-0.140625 0.125 -0.296875 0.1875q-0.15625 0.0625 -0.328125 0.0625q-0.4375 0 -0.703125 -0.28125q-0.265625 -0.296875 -0.265625 -0.984375l0 -0.640625q0 -0.6875 0.265625 -0.96875q0.265625 -0.296875 0.6875 -0.296875q0.34375 0 0.5625 0.1875q0.234375 0.1875 0.375 0.65625q0.4375 0.375 1.046875 0.5625q0.609375 0.1875 1.40625 0.1875q1.3125 0 2.03125 -0.40625q0.34375 -0.203125 0.34375 -0.4375q0 -0.359375 -0.484375 -0.609375q-0.5 -0.234375 -2.03125 -0.40625q-2.296875 -0.234375 -3.0625 -0.921875q-0.78125 -0.6875 -0.78125 -1.671875q0 -1.015625 0.875 -1.703125q1.15625 -0.921875 3.0625 -0.921875q0.65625 0 1.265625 0.125q0.609375 0.125 1.15625 0.375q0.171875 -0.125 0.328125 -0.1875q0.15625 -0.0625 0.28125 -0.0625q0.390625 0 0.65625 0.296875q0.265625 0.28125 0.265625 0.96875l0 0.46875q0 0.625 -0.15625 0.84375q-0.296875 0.421875 -0.8125 0.421875q-0.34375 0 -0.609375 -0.203125q-0.25 -0.21875 -0.328125 -0.578125zm6.7893066 5.15625l0 3.109375l1.140625 0q0.6875 0 0.96875 0.265625q0.296875 0.265625 0.296875 0.703125q0 0.40625 -0.296875 0.671875q-0.28125 0.265625 -0.96875 0.265625l-3.375 0q-0.6875 0 -0.984375 -0.265625q-0.28125 -0.265625 -0.28125 -0.671875q0 -0.4375 0.296875 -0.703125q0.296875 -0.265625 0.96875 -0.265625l0.328125 0l0 -8.578125l-0.328125 0q-0.6875 0 -0.984375 -0.265625q-0.28125 -0.265625 -0.28125 -0.703125q0 -0.40625 0.28125 -0.671875q0.296875 -0.265625 0.984375 -0.265625l2.234375 0l0 0.640625q0.671875 -0.453125 1.375 -0.671875q0.71875 -0.21875 1.46875 -0.21875q1.953125 0 3.3125 1.328125q1.375 1.3125 1.375 3.015625q0 1.890625 -1.609375 3.109375q-1.359375 1.03125 -3.0625 1.03125q-0.734375 0 -1.453125 -0.21875q-0.703125 -0.21875 -1.40625 -0.640625zm5.640625 -3.265625q0 -0.40625 -0.328125 -1.015625q-0.3125 -0.625 -0.96875 -1.03125q-0.640625 -0.40625 -1.53125 -0.40625q-1.421875 0 -2.25 1.0625q-0.5625 0.734375 -0.5625 1.40625q0 0.765625 0.8125 1.484375q0.8125 0.71875 2.0 0.71875q1.203125 0 2.015625 -0.71875q0.8125 -0.71875 0.8125 -1.5zm12.851837 0.265625q0 1.09375 -0.609375 2.125q-0.609375 1.015625 -1.8125 1.625q-1.203125 0.609375 -2.5 0.609375q-1.296875 0 -2.484375 -0.59375q-1.1875 -0.609375 -1.8125 -1.640625q-0.625 -1.03125 -0.625 -2.15625q0 -1.140625 0.625 -2.234375q0.640625 -1.09375 1.8125 -1.71875q1.1875 -0.640625 2.484375 -0.640625q1.296875 0 2.5 0.640625q1.203125 0.640625 1.8125 1.734375q0.609375 1.09375 0.609375 2.25zm-1.90625 0q0 -0.921875 -0.65625 -1.6875q-0.890625 -1.03125 -2.359375 -1.03125q-1.296875 0 -2.15625 0.828125q-0.859375 0.8125 -0.859375 1.90625q0 0.890625 0.859375 1.671875q0.875 0.765625 2.15625 0.765625q1.28125 0 2.140625 -0.765625q0.875 -0.78125 0.875 -1.6875zm6.2424316 -4.375l0 0.640625q0.515625 -0.453125 1.140625 -0.671875q0.625 -0.21875 1.359375 -0.21875q1.6875 0 2.671875 1.046875q0.78125 0.828125 0.78125 2.1875l0 3.53125q0.59375 0 0.875 0.265625q0.296875 0.265625 0.296875 0.6875q0 0.421875 -0.296875 0.6875q-0.28125 0.265625 -0.96875 0.265625l-1.71875 0q-0.6875 0 -0.984375 -0.265625q-0.28125 -0.265625 -0.28125 -0.6875q0 -0.421875 0.28125 -0.6875q0.296875 -0.265625 0.890625 -0.265625l0 -3.59375q0 -0.609375 -0.328125 -0.90625q-0.4375 -0.359375 -1.3125 -0.359375q-0.65625 0 -1.15625 0.25q-0.5 0.25 -1.25 1.078125l0 3.53125q0.734375 0 0.9375 0.140625q0.453125 0.28125 0.453125 0.8125q0 0.421875 -0.296875 0.6875q-0.28125 0.265625 -0.96875 0.265625l-2.15625 0q-0.6875 0 -0.984375 -0.265625q-0.296875 -0.265625 -0.296875 -0.6875q0 -0.515625 0.453125 -0.8125q0.21875 -0.140625 0.953125 -0.140625l0 -4.609375q-0.609375 0 -0.890625 -0.265625q-0.28125 -0.28125 -0.28125 -0.703125q0 -0.40625 0.28125 -0.671875q0.296875 -0.265625 0.984375 -0.265625l1.8125 0zm15.164337 2.21875q-0.453125 -0.28125 -0.96875 -0.421875q-0.515625 -0.140625 -1.0625 -0.140625q-1.109375 0 -1.75 0.359375q-0.296875 0.15625 -0.296875 0.34375q0 0.203125 0.390625 0.40625q0.296875 0.15625 1.328125 0.296875q1.890625 0.25 2.640625 0.515625q0.96875 0.34375 1.5 1.03125q0.53125 0.671875 0.53125 1.421875q0 1.015625 -0.90625 1.703125q-1.28125 1.0 -3.34375 1.0q-0.828125 0 -1.53125 -0.15625q-0.703125 -0.140625 -1.28125 -0.421875q-0.140625 0.125 -0.296875 0.1875q-0.15625 0.0625 -0.328125 0.0625q-0.4375 0 -0.703125 -0.28125q-0.265625 -0.296875 -0.265625 -0.984375l0 -0.640625q0 -0.6875 0.265625 -0.96875q0.265625 -0.296875 0.6875 -0.296875q0.34375 0 0.5625 0.1875q0.234375 0.1875 0.375 0.65625q0.4375 0.375 1.046875 0.5625q0.609375 0.1875 1.40625 0.1875q1.3125 0 2.03125 -0.40625q0.34375 -0.203125 0.34375 -0.4375q0 -0.359375 -0.484375 -0.609375q-0.5 -0.234375 -2.03125 -0.40625q-2.296875 -0.234375 -3.0625 -0.921875q-0.78125 -0.6875 -0.78125 -1.671875q0 -1.015625 0.875 -1.703125q1.15625 -0.921875 3.0625 -0.921875q0.65625 0 1.265625 0.125q0.609375 0.125 1.15625 0.375q0.171875 -0.125 0.328125 -0.1875q0.15625 -0.0625 0.28125 -0.0625q0.390625 0 0.65625 0.296875q0.265625 0.28125 0.265625 0.96875l0 0.46875q0 0.625 -0.15625 0.84375q-0.296875 0.421875 -0.8125 0.421875q-0.34375 0 -0.609375 -0.203125q-0.25 -0.21875 -0.328125 -0.578125zm13.914307 2.953125l-7.796875 0q0.296875 0.75 1.046875 1.203125q0.765625 0.453125 2.046875 0.453125q1.0625 0 2.8125 -0.453125q0.734375 -0.1875 1.0 -0.1875q0.390625 0 0.640625 0.265625q0.265625 0.265625 0.265625 0.671875q0 0.375 -0.28125 0.640625q-0.375 0.34375 -1.8125 0.65625q-1.4375 0.3125 -2.765625 0.3125q-2.28125 0 -3.65625 -1.28125q-1.359375 -1.296875 -1.359375 -3.1875q0 -2.0 1.484375 -3.25q1.484375 -1.265625 3.40625 -1.265625q1.15625 0 2.125 0.40625q0.96875 0.40625 1.453125 0.875q0.65625 0.6875 1.09375 1.703125q0.296875 0.703125 0.296875 1.640625l0 0.796875zm-2.09375 -1.90625q-0.4375 -0.8125 -1.15625 -1.203125q-0.703125 -0.40625 -1.671875 -0.40625q-0.96875 0 -1.671875 0.40625q-0.703125 0.390625 -1.140625 1.203125l5.640625 0zm13.789337 10.859375l-10.453125 0q-0.6875 0 -0.96875 -0.265625q-0.296875 -0.25 -0.296875 -0.671875q0 -0.4375 0.296875 -0.703125q0.28125 -0.265625 0.96875 -0.265625l10.453125 0q0.671875 0 0.96875 0.265625q0.296875 0.265625 0.296875 0.703125q0 0.40625 -0.296875 0.671875q-0.28125 0.265625 -0.96875 0.265625zm5.4611816 -12.21875l0 3.8125q0 0.609375 0.25 0.796875q0.390625 0.3125 1.390625 0.3125q1.453125 0 2.6875 -0.625q0.46875 -0.234375 0.75 -0.234375q0.359375 0 0.625 0.28125q0.28125 0.265625 0.28125 0.671875q0 0.375 -0.296875 0.640625q-0.453125 0.4375 -1.796875 0.8125q-1.328125 0.359375 -2.25 0.359375q-1.765625 0 -2.65625 -0.765625q-0.890625 -0.765625 -0.890625 -1.890625l0 -4.171875l-0.6875 0q-0.6875 0 -0.984375 -0.265625q-0.28125 -0.265625 -0.28125 -0.703125q0 -0.40625 0.28125 -0.671875q0.296875 -0.265625 0.984375 -0.265625l0.6875 0l0 -1.71875q0 -0.6875 0.265625 -0.96875q0.265625 -0.296875 0.6875 -0.296875q0.421875 0 0.6875 0.296875q0.265625 0.28125 0.265625 0.96875l0 1.71875l3.515625 0q0.6875 0 0.96875 0.265625q0.296875 0.265625 0.296875 0.6875q0 0.421875 -0.296875 0.6875q-0.28125 0.265625 -0.96875 0.265625l-3.515625 0zm16.601837 2.46875q0 1.09375 -0.609375 2.125q-0.609375 1.015625 -1.8125 1.625q-1.203125 0.609375 -2.5 0.609375q-1.296875 0 -2.484375 -0.59375q-1.1875 -0.609375 -1.8125 -1.640625q-0.625 -1.03125 -0.625 -2.15625q0 -1.140625 0.625 -2.234375q0.640625 -1.09375 1.8125 -1.71875q1.1875 -0.640625 2.484375 -0.640625q1.296875 0 2.5 0.640625q1.203125 0.640625 1.8125 1.734375q0.609375 1.09375 0.609375 2.25zm-1.90625 0q0 -0.921875 -0.65625 -1.6875q-0.890625 -1.03125 -2.359375 -1.03125q-1.296875 0 -2.15625 0.828125q-0.859375 0.8125 -0.859375 1.90625q0 0.890625 0.859375 1.671875q0.875 0.765625 2.15625 0.765625q1.28125 0 2.140625 -0.765625q0.875 -0.78125 0.875 -1.6875z" fill-rule="nonzero"></path><path fill="#cfe2f3" d="m18.799213 225.58792l344.31454 0l19.71695 19.716934l0 98.58229l-364.0315 0z" fill-rule="nonzero"></path><path stroke="#000000" stroke-width="1.0" stroke-linejoin="round" stroke-linecap="butt" d="m18.799213 225.58792l344.31454 0l19.71695 19.716934l0 98.58229l-364.0315 0z" fill-rule="nonzero"></path><path fill="#000000" d="m46.280766 276.14926q1.015625 0 2.0 0.53125q0.984375 0.515625 1.53125 1.5q0.546875 0.984375 0.546875 2.046875q0 1.6875 -1.203125 2.890625q-1.1875 1.203125 -2.875 1.203125q-1.703125 0 -2.90625 -1.203125q-1.1875 -1.203125 -1.1875 -2.890625q0 -1.0625 0.546875 -2.046875q0.546875 -0.984375 1.53125 -1.5q0.984375 -0.53125 2.015625 -0.53125z" fill-rule="nonzero"></path><path fill="#000000" d="m81.033585 279.07114l0 3.8125q0 0.609375 0.25 0.796875q0.390625 0.3125 1.390625 0.3125q1.453125 0 2.6875 -0.625q0.46875 -0.234375 0.75 -0.234375q0.359375 0 0.625 0.28125q0.28125 0.265625 0.28125 0.671875q0 0.375 -0.296875 0.640625q-0.453125 0.4375 -1.796875 0.8125q-1.328125 0.359375 -2.25 0.359375q-1.765625 0 -2.65625 -0.765625q-0.890625 -0.765625 -0.890625 -1.890625l0 -4.171875l-0.6875 0q-0.6875 0 -0.984375 -0.265625q-0.28125 -0.265625 -0.28125 -0.703125q0 -0.40625 0.28125 -0.671875q0.296875 -0.265625 0.984375 -0.265625l0.6875 0l0 -1.71875q0 -0.6875 0.265625 -0.96875q0.265625 -0.296875 0.6875 -0.296875q0.421875 0 0.6875 0.296875q0.265625 0.28125 0.265625 0.96875l0 1.71875l3.515625 0q0.6875 0 0.96875 0.265625q0.296875 0.265625 0.296875 0.6875q0 0.421875 -0.296875 0.6875q-0.28125 0.265625 -0.96875 0.265625l-3.515625 0zm16.429947 3.265625l-7.796875 0q0.296875 0.75 1.046875 1.203125q0.765625 0.453125 2.046875 0.453125q1.0625 0 2.8125 -0.453125q0.734375 -0.1875 1.0 -0.1875q0.390625 0 0.640625 0.265625q0.265625 0.265625 0.265625 0.671875q0 0.375 -0.28125 0.640625q-0.375 0.34375 -1.8125 0.65625q-1.4375 0.3125 -2.765625 0.3125q-2.28125 0 -3.65625 -1.28125q-1.359375 -1.296875 -1.359375 -3.1875q0 -2.0 1.484375 -3.25q1.484375 -1.265625 3.40625 -1.265625q1.15625 0 2.125 0.40625q0.96875 0.40625 1.453125 0.875q0.65625 0.6875 1.09375 1.703125q0.296875 0.703125 0.296875 1.640625l0 0.796875zm-2.09375 -1.90625q-0.4375 -0.8125 -1.15625 -1.203125q-0.703125 -0.40625 -1.671875 -0.40625q-0.96875 0 -1.671875 0.40625q-0.703125 0.390625 -1.140625 1.203125l5.640625 0zm9.945572 0.78125l2.890625 2.46875q0.515625 0.03125 0.765625 0.296875q0.265625 0.265625 0.265625 0.65625q0 0.421875 -0.296875 0.6875q-0.28125 0.265625 -0.96875 0.265625l-2.171875 0q-0.671875 0 -0.96875 -0.265625q-0.296875 -0.265625 -0.296875 -0.703125q0 -0.328125 0.203125 -0.578125q0.21875 -0.265625 0.578125 -0.359375l-1.421875 -1.21875l-1.4375 1.21875q0.421875 0.109375 0.609375 0.34375q0.203125 0.234375 0.203125 0.59375q0 0.4375 -0.296875 0.703125q-0.28125 0.265625 -0.96875 0.265625l-2.140625 0q-0.6875 0 -0.984375 -0.265625q-0.28125 -0.265625 -0.28125 -0.6875q0 -0.390625 0.25 -0.65625q0.265625 -0.265625 0.78125 -0.296875l2.828125 -2.484375l-2.5 -2.125q-0.5 -0.046875 -0.75 -0.3125q-0.25 -0.265625 -0.25 -0.65625q0 -0.40625 0.28125 -0.671875q0.296875 -0.265625 0.984375 -0.265625l1.78125 0q0.6875 0 0.96875 0.265625q0.296875 0.265625 0.296875 0.671875q0 0.546875 -0.515625 0.890625l1.15625 0.953125l1.125 -0.96875q-0.5 -0.375 -0.5 -0.84375q0 -0.4375 0.28125 -0.703125q0.296875 -0.265625 0.984375 -0.265625l1.765625 0q0.6875 0 0.96875 0.265625q0.296875 0.265625 0.296875 0.6875q0 0.375 -0.265625 0.640625q-0.25 0.265625 -0.75 0.3125l-2.5 2.140625zm9.304947 -2.140625l0 3.8125q0 0.609375 0.25 0.796875q0.390625 0.3125 1.390625 0.3125q1.453125 0 2.6875 -0.625q0.46875 -0.234375 0.75 -0.234375q0.359375 0 0.625 0.28125q0.28125 0.265625 0.28125 0.671875q0 0.375 -0.296875 0.640625q-0.453125 0.4375 -1.796875 0.8125q-1.328125 0.359375 -2.25 0.359375q-1.765625 0 -2.65625 -0.765625q-0.890625 -0.765625 -0.890625 -1.890625l0 -4.171875l-0.6875 0q-0.6875 0 -0.984375 -0.265625q-0.28125 -0.265625 -0.28125 -0.703125q0 -0.40625 0.28125 -0.671875q0.296875 -0.265625 0.984375 -0.265625l0.6875 0l0 -1.71875q0 -0.6875 0.265625 -0.96875q0.265625 -0.296875 0.6875 -0.296875q0.421875 0 0.6875 0.296875q0.265625 0.28125 0.265625 0.96875l0 1.71875l3.515625 0q0.6875 0 0.96875 0.265625q0.296875 0.265625 0.296875 0.6875q0 0.421875 -0.296875 0.6875q-0.28125 0.265625 -0.96875 0.265625l-3.515625 0z" fill-rule="nonzero"></path><path fill="#000000" d="m137.59273 280.96176q0 -1.0625 0.28125 -2.25q0.28125 -1.203125 1.0625 -2.765625q0.796875 -1.578125 1.15625 -1.90625q0.109375 -0.09375 0.234375 -0.09375q0.171875 0 0.28125 0.109375q0.125 0.109375 0.125 0.265625q0 0.09375 -0.0625 0.203125q-1.03125 1.875 -1.46875 3.40625q-0.421875 1.515625 -0.421875 3.03125q0 1.53125 0.421875 3.0625q0.4375 1.515625 1.46875 3.375q0.0625 0.125 0.0625 0.203125q0 0.171875 -0.125 0.28125q-0.109375 0.109375 -0.28125 0.109375q-0.125 0 -0.234375 -0.09375q-0.34375 -0.3125 -1.125 -1.84375q-0.78125 -1.53125 -1.078125 -2.703125q-0.296875 -1.1875 -0.296875 -2.390625zm14.16748 4.625l0 -1.140625q-1.609375 1.453125 -3.453125 1.453125q-1.140625 0 -1.734375 -0.625q-0.78125 -0.8125 -0.78125 -1.90625l0 -5.03125l-1.046875 0q-0.28125 0 -0.40625 -0.109375q-0.109375 -0.109375 -0.109375 -0.28125q0 -0.171875 0.109375 -0.28125q0.125 -0.109375 0.40625 -0.109375l1.828125 0l0 5.8125q0 0.765625 0.484375 1.265625q0.484375 0.484375 1.203125 0.484375q1.90625 0 3.5 -1.75l0 -5.03125l-1.4375 0q-0.28125 0 -0.40625 -0.109375q-0.125 -0.109375 -0.125 -0.28125q0 -0.171875 0.125 -0.28125q0.125 -0.109375 0.40625 -0.109375l2.203125 0l0 7.25l0.671875 0q0.265625 0 0.390625 0.109375q0.125 0.109375 0.125 0.28125q0 0.171875 -0.125 0.28125q-0.125 0.109375 -0.390625 0.109375l-1.4375 0zm6.2143555 -8.03125l0 1.171875q0.8125 -0.828125 1.46875 -1.140625q0.65625 -0.3125 1.484375 -0.3125q0.890625 0 1.625 0.375q0.515625 0.28125 0.9375 0.9375q0.421875 0.640625 0.421875 1.3125l0 4.90625l0.65625 0q0.28125 0 0.40625 0.109375q0.125 0.109375 0.125 0.28125q0 0.171875 -0.125 0.28125q-0.125 0.109375 -0.40625 0.109375l-2.078125 0q-0.296875 0 -0.421875 -0.109375q-0.109375 -0.109375 -0.109375 -0.28125q0 -0.171875 0.109375 -0.28125q0.125 -0.109375 0.421875 -0.109375l0.640625 0l0 -4.78125q0 -0.828125 -0.609375 -1.390625q-0.59375 -0.578125 -1.609375 -0.578125q-0.765625 0 -1.328125 0.3125q-0.5625 0.3125 -1.609375 1.546875l0 4.890625l0.875 0q0.28125 0 0.390625 0.109375q0.125 0.109375 0.125 0.28125q0 0.171875 -0.125 0.28125q-0.109375 0.109375 -0.390625 0.109375l-2.546875 0q-0.265625 0 -0.390625 -0.109375q-0.125 -0.109375 -0.125 -0.28125q0 -0.171875 0.125 -0.28125q0.125 -0.109375 0.390625 -0.109375l0.890625 0l0 -6.46875l-0.65625 0q-0.28125 0 -0.40625 -0.109375q-0.125 -0.109375 -0.125 -0.28125q0 -0.171875 0.125 -0.28125q0.125 -0.109375 0.40625 -0.109375l1.4375 0zm14.308105 -4.0l0 2.015625l-1.15625 0l0 -2.015625l1.15625 0zm0.015625 4.0l0 7.25l3.0625 0q0.296875 0 0.40625 0.109375q0.125 0.109375 0.125 0.28125q0 0.171875 -0.125 0.28125q-0.109375 0.109375 -0.40625 0.109375l-6.90625 0q-0.265625 0 -0.390625 -0.109375q-0.125 -0.109375 -0.125 -0.28125q0 -0.171875 0.125 -0.28125q0.125 -0.109375 0.390625 -0.109375l3.0625 0l0 -6.46875l-2.265625 0q-0.28125 0 -0.40625 -0.109375q-0.125 -0.109375 -0.125 -0.28125q0 -0.171875 0.125 -0.28125q0.125 -0.109375 0.40625 -0.109375l3.046875 0zm14.01123 1.421875l0 -1.421875l1.828125 0q0.296875 0 0.40625 0.109375q0.125 0.109375 0.125 0.28125q0 0.171875 -0.125 0.28125q-0.109375 0.109375 -0.40625 0.109375l-1.03125 0l0 10.046875l1.03125 0q0.296875 0 0.40625 0.109375q0.125 0.109375 0.125 0.28125q0 0.171875 -0.125 0.28125q-0.109375 0.109375 -0.40625 0.109375l-3.703125 0q-0.28125 0 -0.40625 -0.109375q-0.125 -0.09375 -0.125 -0.28125q0 -0.171875 0.125 -0.28125q0.125 -0.109375 0.40625 -0.109375l1.875 0l0 -4.6875q-1.28125 1.703125 -3.390625 1.703125q-1.734375 0 -2.9375 -1.1875q-1.203125 -1.203125 -1.203125 -2.890625q0 -1.6875 1.203125 -2.859375q1.203125 -1.1875 2.96875 -1.1875q2.078125 0 3.359375 1.703125zm0 2.34375q0 -1.34375 -0.984375 -2.296875q-0.984375 -0.96875 -2.390625 -0.96875q-1.40625 0 -2.390625 0.96875q-0.984375 0.953125 -0.984375 2.296875q0 1.359375 0.984375 2.328125q0.984375 0.953125 2.390625 0.953125q1.40625 0 2.390625 -0.953125q0.984375 -0.96875 0.984375 -2.328125zm11.058105 4.265625l0 -1.140625q-1.609375 1.453125 -3.453125 1.453125q-1.140625 0 -1.734375 -0.625q-0.78125 -0.8125 -0.78125 -1.90625l0 -5.03125l-1.046875 0q-0.28125 0 -0.40625 -0.109375q-0.109375 -0.109375 -0.109375 -0.28125q0 -0.171875 0.109375 -0.28125q0.125 -0.109375 0.40625 -0.109375l1.828125 0l0 5.8125q0 0.765625 0.484375 1.265625q0.484375 0.484375 1.203125 0.484375q1.90625 0 3.5 -1.75l0 -5.03125l-1.4375 0q-0.28125 0 -0.40625 -0.109375q-0.125 -0.109375 -0.125 -0.28125q0 -0.171875 0.125 -0.28125q0.125 -0.109375 0.40625 -0.109375l2.203125 0l0 7.25l0.671875 0q0.265625 0 0.390625 0.109375q0.125 0.109375 0.125 0.28125q0 0.171875 -0.125 0.28125q-0.125 0.109375 -0.390625 0.109375l-1.4375 0zm12.94873 -3.828125l-7.953125 0q0.21875 1.515625 1.28125 2.4375q1.0625 0.921875 2.625 0.921875q0.875 0 1.828125 -0.28125q0.953125 -0.296875 1.5625 -0.765625q0.171875 -0.140625 0.296875 -0.140625q0.15625 0 0.265625 0.125q0.109375 0.109375 0.109375 0.265625q0 0.15625 -0.15625 0.296875q-0.4375 0.46875 -1.578125 0.875q-1.140625 0.40625 -2.328125 0.40625q-2.0 0 -3.34375 -1.3125q-1.34375 -1.3125 -1.34375 -3.1875q0 -1.6875 1.25 -2.90625q1.265625 -1.21875 3.125 -1.21875q1.90625 0 3.140625 1.25q1.234375 1.25 1.21875 3.234375zm-0.796875 -0.796875q-0.234375 -1.28125 -1.21875 -2.09375q-0.984375 -0.8125 -2.34375 -0.8125q-1.375 0 -2.359375 0.8125q-0.96875 0.796875 -1.21875 2.09375l7.140625 0zm21.95996 -2.90625q0 -0.265625 0.109375 -0.375q0.109375 -0.125 0.28125 -0.125q0.171875 0 0.28125 0.125q0.109375 0.109375 0.109375 0.40625l0 1.328125q0 0.28125 -0.109375 0.40625q-0.109375 0.109375 -0.28125 0.109375q-0.171875 0 -0.28125 -0.09375q-0.09375 -0.109375 -0.109375 -0.34375q-0.0625 -0.546875 -0.578125 -0.90625q-0.765625 -0.53125 -2.015625 -0.53125q-1.3125 0 -2.03125 0.53125q-0.546875 0.40625 -0.546875 0.890625q0 0.5625 0.640625 0.9375q0.453125 0.25 1.703125 0.390625q1.609375 0.171875 2.25 0.40625q0.890625 0.328125 1.328125 0.90625q0.453125 0.5625 0.453125 1.234375q0 0.984375 -0.953125 1.765625q-0.953125 0.78125 -2.8125 0.78125q-1.84375 0 -3.015625 -0.9375q0 0.3125 -0.046875 0.40625q-0.03125 0.09375 -0.125 0.15625q-0.09375 0.0625 -0.21875 0.0625q-0.171875 0 -0.28125 -0.109375q-0.109375 -0.125 -0.109375 -0.40625l0 -1.609375q0 -0.28125 0.109375 -0.390625q0.109375 -0.125 0.28125 -0.125q0.171875 0 0.28125 0.125q0.109375 0.109375 0.109375 0.296875q0 0.421875 0.21875 0.71875q0.328125 0.4375 1.03125 0.734375q0.71875 0.296875 1.75 0.296875q1.515625 0 2.25 -0.5625q0.75 -0.578125 0.75 -1.203125q0 -0.71875 -0.75 -1.15625q-0.765625 -0.4375 -2.21875 -0.578125q-1.453125 -0.15625 -2.078125 -0.390625q-0.625 -0.25 -0.984375 -0.734375q-0.359375 -0.484375 -0.359375 -1.03125q0 -1.015625 0.984375 -1.59375q0.984375 -0.59375 2.359375 -0.59375q1.609375 0 2.625 0.78125zm7.2143555 -0.5l4.234375 0q0.28125 0 0.390625 0.109375q0.125 0.109375 0.125 0.28125q0 0.171875 -0.125 0.28125q-0.109375 0.109375 -0.390625 0.109375l-4.234375 0l0 5.1875q0 0.6875 0.546875 1.140625q0.546875 0.453125 1.59375 0.453125q0.78125 0 1.703125 -0.234375q0.921875 -0.25 1.4375 -0.546875q0.1875 -0.109375 0.296875 -0.109375q0.15625 0 0.265625 0.125q0.109375 0.109375 0.109375 0.265625q0 0.140625 -0.125 0.25q-0.296875 0.3125 -1.4375 0.671875q-1.140625 0.359375 -2.1875 0.359375q-1.375 0 -2.1875 -0.640625q-0.796875 -0.640625 -0.796875 -1.734375l0 -5.1875l-1.4375 0q-0.28125 0 -0.40625 -0.109375q-0.109375 -0.109375 -0.109375 -0.28125q0 -0.171875 0.109375 -0.28125q0.125 -0.109375 0.40625 -0.109375l1.4375 0l0 -2.296875q0 -0.28125 0.109375 -0.40625q0.109375 -0.125 0.28125 -0.125q0.171875 0 0.28125 0.125q0.109375 0.125 0.109375 0.40625l0 2.296875zm12.07373 0l0 1.96875q1.53125 -1.375 2.28125 -1.765625q0.75 -0.40625 1.390625 -0.40625q0.703125 0 1.296875 0.46875q0.59376526 0.46875 0.59376526 0.71875q0 0.171875 -0.109375 0.296875q-0.109375 0.109375 -0.29689026 0.109375q-0.09375 0 -0.15625 -0.03125q-0.0625 -0.03125 -0.234375 -0.21875q-0.328125 -0.3125 -0.578125 -0.4375q-0.234375 -0.125 -0.46875 -0.125q-0.5 0 -1.21875 0.40625q-0.71875 0.40625 -2.5 2.0l0 4.265625l3.453125 0q0.28125 0 0.40625 0.109375q0.125 0.109375 0.125 0.28125q0 0.171875 -0.125 0.28125q-0.125 0.109375 -0.40625 0.109375l-6.109375 0q-0.28125 0 -0.40625 -0.109375q-0.109375 -0.109375 -0.109375 -0.265625q0 -0.15625 0.109375 -0.265625q0.109375 -0.109375 0.40625 -0.109375l1.875 0l0 -6.5l-1.4375 0q-0.28125 0 -0.40625 -0.109375q-0.109375 -0.109375 -0.109375 -0.28125q0 -0.171875 0.109375 -0.28125q0.125 -0.109375 0.40625 -0.109375l2.21875 0zm12.729996 -4.0l0 2.015625l-1.15625 0l0 -2.015625l1.15625 0zm0.015625 4.0l0 7.25l3.0625 0q0.296875 0 0.40625 0.109375q0.125 0.109375 0.125 0.28125q0 0.171875 -0.125 0.28125q-0.109375 0.109375 -0.40625 0.109375l-6.90625 0q-0.265625 0 -0.390625 -0.109375q-0.125 -0.109375 -0.125 -0.28125q0 -0.171875 0.125 -0.28125q0.125 -0.109375 0.390625 -0.109375l3.0625 0l0 -6.46875l-2.265625 0q-0.28125 0 -0.40625 -0.109375q-0.125 -0.109375 -0.125 -0.28125q0 -0.171875 0.125 -0.28125q0.125 -0.109375 0.40625 -0.109375l3.046875 0zm8.47998 0l0 1.171875q0.8125 -0.828125 1.46875 -1.140625q0.65625 -0.3125 1.484375 -0.3125q0.890625 0 1.625 0.375q0.515625 0.28125 0.9375 0.9375q0.421875 0.640625 0.421875 1.3125l0 4.90625l0.65625 0q0.28125 0 0.40625 0.109375q0.125 0.109375 0.125 0.28125q0 0.171875 -0.125 0.28125q-0.125 0.109375 -0.40625 0.109375l-2.078125 0q-0.296875 0 -0.421875 -0.109375q-0.109375 -0.109375 -0.109375 -0.28125q0 -0.171875 0.109375 -0.28125q0.125 -0.109375 0.421875 -0.109375l0.640625 0l0 -4.78125q0 -0.828125 -0.609375 -1.390625q-0.59375 -0.578125 -1.609375 -0.578125q-0.765625 0 -1.328125 0.3125q-0.5625 0.3125 -1.609375 1.546875l0 4.890625l0.875 0q0.28125 0 0.390625 0.109375q0.125 0.109375 0.125 0.28125q0 0.171875 -0.125 0.28125q-0.109375 0.109375 -0.390625 0.109375l-2.546875 0q-0.265625 0 -0.390625 -0.109375q-0.125 -0.109375 -0.125 -0.28125q0 -0.171875 0.125 -0.28125q0.125 -0.109375 0.390625 -0.109375l0.890625 0l0 -6.46875l-0.65625 0q-0.28125 0 -0.40625 -0.109375q-0.125 -0.109375 -0.125 -0.28125q0 -0.171875 0.125 -0.28125q0.125 -0.109375 0.40625 -0.109375l1.4375 0zm16.54248 1.421875l0 -1.421875l1.828125 0q0.265625 0 0.390625 0.109375q0.125 0.109375 0.125 0.28125q0 0.171875 -0.125 0.28125q-0.125 0.109375 -0.390625 0.109375l-1.0625 0l0 7.78125q0 0.78125 -0.328125 1.40625q-0.21875 0.40625 -0.75 0.828125q-0.515625 0.4375 -0.9375 0.625q-0.421875 0.1875 -1.140625 0.1875l-2.203125 0q-0.28125 0 -0.40625 -0.109375q-0.125 -0.09375 -0.125 -0.28125q0 -0.171875 0.125 -0.28125q0.125 -0.109375 0.40625 -0.109375l2.234375 0q0.6875 0 1.234375 -0.359375q0.546875 -0.34375 0.921875 -1.015625q0.203125 -0.390625 0.203125 -1.0l0 -2.328125q-1.265625 1.71875 -3.234375 1.71875q-1.609375 0 -2.78125 -1.1875q-1.15625 -1.203125 -1.15625 -2.890625q0 -1.671875 1.15625 -2.859375q1.171875 -1.1875 2.78125 -1.1875q1.96875 0 3.234375 1.703125zm0 2.34375q0 -1.359375 -0.953125 -2.3125q-0.9375 -0.953125 -2.25 -0.953125q-1.296875 0 -2.234375 0.953125q-0.9375 0.953125 -0.9375 2.3125q0 1.375 0.9375 2.328125q0.9375 0.953125 2.234375 0.953125q1.3125 0 2.25 -0.953125q0.953125 -0.953125 0.953125 -2.328125zm7.2299805 1.46875l2.53125 0l-2.75 5.109375q-0.25 0.46875 -0.609375 0.46875q-0.234375 0 -0.390625 -0.171875q-0.15625 -0.15625 -0.15625 -0.375q0 -0.09375 0.015625 -0.21875l1.359375 -4.8125zm22.663086 -1.65625l0 3.671875l2.671875 0q0.265625 0 0.390625 0.109375q0.125 0.109375 0.125 0.28125q0 0.171875 -0.125 0.28125q-0.125 0.109375 -0.390625 0.109375l-4.5 0q-0.28125 0 -0.40625 -0.109375q-0.125 -0.109375 -0.125 -0.28125q0 -0.171875 0.125 -0.28125q0.125 -0.109375 0.40625 -0.109375l1.046875 0l0 -9.296875l-1.046875 0q-0.28125 0 -0.40625 -0.09375q-0.125 -0.109375 -0.125 -0.296875q0 -0.171875 0.125 -0.28125q0.125 -0.109375 0.40625 -0.109375l4.515625 0q1.609375 0 2.625 0.953125q1.015625 0.9375 1.015625 2.21875q0 0.75 -0.328125 1.359375q-0.328125 0.59375 -0.796875 0.9375q-0.6875 0.515625 -1.4375 0.765625q-0.53125 0.171875 -1.328125 0.171875l-2.4375 0zm0 -0.78125l2.484375 0q0.859375 0 1.609375 -0.375q0.765625 -0.390625 1.109375 -0.9375q0.34375 -0.5625 0.34375 -1.140625q0 -0.921875 -0.796875 -1.65625q-0.78125 -0.734375 -1.984375 -0.734375l-2.765625 0l0 4.84375zm10.558105 0.984375l0 3.46875l1.4375 0q0.296875 0 0.40625 0.109375q0.125 0.109375 0.125 0.28125q0 0.171875 -0.125 0.28125q-0.109375 0.109375 -0.40625 0.109375l-3.265625 0q-0.28125 0 -0.40625 -0.109375q-0.109375 -0.109375 -0.109375 -0.28125q0 -0.171875 0.109375 -0.28125q0.125 -0.109375 0.40625 -0.109375l1.046875 0l0 -9.296875l-1.046875 0q-0.28125 0 -0.40625 -0.09375q-0.109375 -0.109375 -0.109375 -0.296875q0 -0.171875 0.109375 -0.28125q0.125 -0.109375 0.40625 -0.109375l3.265625 0q0.296875 0 0.40625 0.109375q0.125 0.109375 0.125 0.28125q0 0.1875 -0.125 0.296875q-0.109375 0.09375 -0.40625 0.09375l-1.4375 0l0 4.796875l5.375 -4.796875l-0.84375 0q-0.296875 0 -0.421875 -0.09375q-0.109375 -0.109375 -0.109375 -0.296875q0 -0.171875 0.109375 -0.28125q0.125 -0.109375 0.421875 -0.109375l2.28125 0q0.28125 0 0.40625 0.109375q0.125 0.109375 0.125 0.28125q0 0.1875 -0.125 0.296875q-0.125 0.09375 -0.40625 0.09375l-0.3125 0l-4.28125 3.828125q0.953125 0.390625 1.578125 0.984375q0.640625 0.578125 1.21875 1.65625q0.34375 0.609375 1.234375 2.828125l0.96875 0q0.28125 0 0.40625 0.109375q0.125 0.109375 0.125 0.28125q0 0.171875 -0.125 0.28125q-0.125 0.109375 -0.40625 0.109375l-1.5 0q-1.234375 -3.34375 -2.0625 -4.296875q-0.828125 -0.96875 -2.09375 -1.359375l-1.5625 1.40625zm14.151855 -0.359375q0 1.0625 -0.28125 2.265625q-0.265625 1.1875 -1.0625 2.75q-0.78125 1.578125 -1.140625 1.890625q-0.109375 0.109375 -0.25 0.109375q-0.15625 0 -0.28125 -0.109375q-0.109375 -0.109375 -0.109375 -0.28125q0 -0.078125 0.0625 -0.203125q1.015625 -1.859375 1.453125 -3.375q0.4375 -1.53125 0.4375 -3.046875q0 -1.53125 -0.4375 -3.046875q-0.4375 -1.53125 -1.453125 -3.40625q-0.0625 -0.109375 -0.0625 -0.203125q0 -0.15625 0.109375 -0.265625q0.125 -0.109375 0.28125 -0.109375q0.140625 0 0.25 0.09375q0.34375 0.328125 1.109375 1.859375q0.78125 1.515625 1.078125 2.703125q0.296875 1.171875 0.296875 2.375z" fill-rule="nonzero"></path><path fill="#000000" d="m46.280766 298.14926q1.015625 0 2.0 0.53125q0.984375 0.515625 1.53125 1.5q0.546875 0.984375 0.546875 2.046875q0 1.6875 -1.203125 2.890625q-1.1875 1.203125 -2.875 1.203125q-1.703125 0 -2.90625 -1.203125q-1.1875 -1.203125 -1.1875 -2.890625q0 -1.0625 0.546875 -2.046875q0.546875 -0.984375 1.53125 -1.5q0.984375 -0.53125 2.015625 -0.53125z" fill-rule="nonzero"></path><path fill="#000000" d="m82.189835 295.5555l0 2.015625l-2.265625 0l0 -2.015625l2.265625 0zm0.25 3.609375l0 6.515625l2.28125 0q0.6875 0 0.984375 0.265625q0.296875 0.265625 0.296875 0.6875q0 0.421875 -0.296875 0.6875q-0.296875 0.265625 -0.984375 0.265625l-6.46875 0q-0.6875 0 -0.984375 -0.265625q-0.28125 -0.265625 -0.28125 -0.6875q0 -0.421875 0.28125 -0.6875q0.296875 -0.265625 0.984375 -0.265625l2.28125 0l0 -4.609375l-1.53125 0q-0.671875 0 -0.96875 -0.265625q-0.296875 -0.265625 -0.296875 -0.703125q0 -0.40625 0.296875 -0.671875q0.296875 -0.265625 0.96875 -0.265625l3.4375 0zm8.336197 0l0 0.640625q0.515625 -0.453125 1.140625 -0.671875q0.625 -0.21875 1.359375 -0.21875q1.6875 0 2.671875 1.046875q0.78125 0.828125 0.78125 2.1875l0 3.53125q0.59375 0 0.875 0.265625q0.296875 0.265625 0.296875 0.6875q0 0.421875 -0.296875 0.6875q-0.28125 0.265625 -0.96875 0.265625l-1.71875 0q-0.6875 0 -0.984375 -0.265625q-0.28125 -0.265625 -0.28125 -0.6875q0 -0.421875 0.28125 -0.6875q0.296875 -0.265625 0.890625 -0.265625l0 -3.59375q0 -0.609375 -0.328125 -0.90625q-0.4375 -0.359375 -1.3125 -0.359375q-0.65625 0 -1.15625 0.25q-0.5 0.25 -1.25 1.078125l0 3.53125q0.734375 0 0.9375 0.140625q0.453125 0.28125 0.453125 0.8125q0 0.421875 -0.296875 0.6875q-0.28125 0.265625 -0.96875 0.265625l-2.15625 0q-0.6875 0 -0.984375 -0.265625q-0.296875 -0.265625 -0.296875 -0.6875q0 -0.515625 0.453125 -0.8125q0.21875 -0.140625 0.953125 -0.140625l0 -4.609375q-0.609375 0 -0.890625 -0.265625q-0.28125 -0.28125 -0.28125 -0.703125q0 -0.40625 0.28125 -0.671875q0.296875 -0.265625 0.984375 -0.265625l1.8125 0zm18.383072 14.125l-10.453125 0q-0.6875 0 -0.96875 -0.265625q-0.296875 -0.25 -0.296875 -0.671875q0 -0.4375 0.296875 -0.703125q0.28125 -0.265625 0.96875 -0.265625l10.453125 0q0.671875 0 0.96875 0.265625q0.296875 0.265625 0.296875 0.703125q0 0.40625 -0.296875 0.671875q-0.28125 0.265625 -0.96875 0.265625zm5.539322 -14.125l0 1.1875q1.1875 -0.859375 1.875 -1.140625q0.703125 -0.296875 1.296875 -0.296875q0.9375 0 1.796875 0.6875q0.59375 0.453125 0.59375 0.9375q0 0.40625 -0.28125 0.703125q-0.28125 0.28125 -0.671875 0.28125q-0.359375 0 -0.75 -0.34375q-0.390625 -0.359375 -0.6875 -0.359375q-0.40625 0 -1.203125 0.5q-0.78125 0.5 -1.96875 1.5l0 2.859375l2.703125 0q0.6875 0 0.96875 0.265625q0.296875 0.265625 0.296875 0.6875q0 0.421875 -0.296875 0.6875q-0.28125 0.265625 -0.96875 0.265625l-5.75 0q-0.671875 0 -0.96875 -0.265625q-0.296875 -0.265625 -0.296875 -0.6875q0 -0.421875 0.296875 -0.6875q0.296875 -0.265625 0.96875 -0.265625l1.140625 0l0 -4.609375l-0.6875 0q-0.6875 0 -0.984375 -0.265625q-0.28125 -0.265625 -0.28125 -0.703125q0 -0.40625 0.28125 -0.671875q0.296875 -0.265625 0.984375 -0.265625l2.59375 0zm16.351822 5.171875l-7.796875 0q0.296875 0.75 1.046875 1.203125q0.765625 0.453125 2.046875 0.453125q1.0625 0 2.8125 -0.453125q0.734375 -0.1875 1.0 -0.1875q0.390625 0 0.640625 0.265625q0.265625 0.265625 0.265625 0.671875q0 0.375 -0.28125 0.640625q-0.375 0.34375 -1.8125 0.65625q-1.4375 0.3125 -2.765625 0.3125q-2.28125 0 -3.65625 -1.28125q-1.359375 -1.296875 -1.359375 -3.1875q0 -2.0 1.484375 -3.25q1.484375 -1.265625 3.40625 -1.265625q1.15625 0 2.125 0.40625q0.96875 0.40625 1.453125 0.875q0.65625 0.6875 1.09375 1.703125q0.296875 0.703125 0.296875 1.640625l0 0.796875zm-2.09375 -1.90625q-0.4375 -0.8125 -1.15625 -1.203125q-0.703125 -0.40625 -1.671875 -0.40625q-0.96875 0 -1.671875 0.40625q-0.703125 0.390625 -1.140625 1.203125l5.640625 0zm10.570572 -1.046875q-0.453125 -0.28125 -0.96875 -0.421875q-0.515625 -0.140625 -1.0625 -0.140625q-1.109375 0 -1.75 0.359375q-0.296875 0.15625 -0.296875 0.34375q0 0.203125 0.390625 0.40625q0.296875 0.15625 1.328125 0.296875q1.890625 0.25 2.640625 0.515625q0.96875 0.34375 1.5 1.03125q0.53125 0.671875 0.53125 1.421875q0 1.015625 -0.90625 1.703125q-1.28125 1.0 -3.34375 1.0q-0.828125 0 -1.53125 -0.15625q-0.703125 -0.140625 -1.28125 -0.421875q-0.140625 0.125 -0.296875 0.1875q-0.15625 0.0625 -0.328125 0.0625q-0.4375 0 -0.703125 -0.28125q-0.265625 -0.296875 -0.265625 -0.984375l0 -0.640625q0 -0.6875 0.265625 -0.96875q0.265625 -0.296875 0.6875 -0.296875q0.34375 0 0.5625 0.1875q0.234375 0.1875 0.375 0.65625q0.4375 0.375 1.046875 0.5625q0.609375 0.1875 1.40625 0.1875q1.3125 0 2.03125 -0.40625q0.34375 -0.203125 0.34375 -0.4375q0 -0.359375 -0.484375 -0.609375q-0.5 -0.234375 -2.03125 -0.40625q-2.296875 -0.234375 -3.0625 -0.921875q-0.78125 -0.6875 -0.78125 -1.671875q0 -1.015625 0.875 -1.703125q1.15625 -0.921875 3.0625 -0.921875q0.65625 0 1.265625 0.125q0.609375 0.125 1.15625 0.375q0.171875 -0.125 0.328125 -0.1875q0.15625 -0.0625 0.28125 -0.0625q0.390625 0 0.65625 0.296875q0.265625 0.28125 0.265625 0.96875l0 0.46875q0 0.625 -0.15625 0.84375q-0.296875 0.421875 -0.8125 0.421875q-0.34375 0 -0.609375 -0.203125q-0.25 -0.21875 -0.328125 -0.578125zm6.789322 5.15625l0 3.109375l1.140625 0q0.6875 0 0.96875 0.265625q0.296875 0.265625 0.296875 0.703125q0 0.40625 -0.296875 0.671875q-0.28125 0.265625 -0.96875 0.265625l-3.375 0q-0.6875 0 -0.984375 -0.265625q-0.28125 -0.265625 -0.28125 -0.671875q0 -0.4375 0.296875 -0.703125q0.296875 -0.265625 0.96875 -0.265625l0.328125 0l0 -8.578125l-0.328125 0q-0.6875 0 -0.984375 -0.265625q-0.28125 -0.265625 -0.28125 -0.703125q0 -0.40625 0.28125 -0.671875q0.296875 -0.265625 0.984375 -0.265625l2.234375 0l0 0.640625q0.671875 -0.453125 1.375 -0.671875q0.71875 -0.21875 1.46875 -0.21875q1.953125 0 3.3125 1.328125q1.375 1.3125 1.375 3.015625q0 1.890625 -1.609375 3.109375q-1.359375 1.03125 -3.0625 1.03125q-0.734375 0 -1.453125 -0.21875q-0.703125 -0.21875 -1.40625 -0.640625zm5.640625 -3.265625q0 -0.40625 -0.328125 -1.015625q-0.3125 -0.625 -0.96875 -1.03125q-0.640625 -0.40625 -1.53125 -0.40625q-1.421875 0 -2.25 1.0625q-0.5625 0.734375 -0.5625 1.40625q0 0.765625 0.8125 1.484375q0.8125 0.71875 2.0 0.71875q1.203125 0 2.015625 -0.71875q0.8125 -0.71875 0.8125 -1.5zm12.851822 0.265625q0 1.09375 -0.609375 2.125q-0.609375 1.015625 -1.8125 1.625q-1.203125 0.609375 -2.5 0.609375q-1.296875 0 -2.484375 -0.59375q-1.1875 -0.609375 -1.8125 -1.640625q-0.625 -1.03125 -0.625 -2.15625q0 -1.140625 0.625 -2.234375q0.640625 -1.09375 1.8125 -1.71875q1.1875 -0.640625 2.484375 -0.640625q1.296875 0 2.5 0.640625q1.203125 0.640625 1.8125 1.734375q0.609375 1.09375 0.609375 2.25zm-1.90625 0q0 -0.921875 -0.65625 -1.6875q-0.890625 -1.03125 -2.359375 -1.03125q-1.296875 0 -2.15625 0.828125q-0.859375 0.8125 -0.859375 1.90625q0 0.890625 0.859375 1.671875q0.875 0.765625 2.15625 0.765625q1.28125 0 2.140625 -0.765625q0.875 -0.78125 0.875 -1.6875zm6.242447 -4.375l0 0.640625q0.515625 -0.453125 1.140625 -0.671875q0.625 -0.21875 1.359375 -0.21875q1.6875 0 2.671875 1.046875q0.78125 0.828125 0.78125 2.1875l0 3.53125q0.59375 0 0.875 0.265625q0.296875 0.265625 0.296875 0.6875q0 0.421875 -0.296875 0.6875q-0.28125 0.265625 -0.96875 0.265625l-1.71875 0q-0.6875 0 -0.984375 -0.265625q-0.28125 -0.265625 -0.28125 -0.6875q0 -0.421875 0.28125 -0.6875q0.296875 -0.265625 0.890625 -0.265625l0 -3.59375q0 -0.609375 -0.328125 -0.90625q-0.4375 -0.359375 -1.3125 -0.359375q-0.65625 0 -1.15625 0.25q-0.5 0.25 -1.25 1.078125l0 3.53125q0.734375 0 0.9375 0.140625q0.453125 0.28125 0.453125 0.8125q0 0.421875 -0.296875 0.6875q-0.28125 0.265625 -0.96875 0.265625l-2.15625 0q-0.6875 0 -0.984375 -0.265625q-0.296875 -0.265625 -0.296875 -0.6875q0 -0.515625 0.453125 -0.8125q0.21875 -0.140625 0.953125 -0.140625l0 -4.609375q-0.609375 0 -0.890625 -0.265625q-0.28125 -0.28125 -0.28125 -0.703125q0 -0.40625 0.28125 -0.671875q0.296875 -0.265625 0.984375 -0.265625l1.8125 0zm15.164322 2.21875q-0.453125 -0.28125 -0.96875 -0.421875q-0.515625 -0.140625 -1.0625 -0.140625q-1.109375 0 -1.75 0.359375q-0.296875 0.15625 -0.296875 0.34375q0 0.203125 0.390625 0.40625q0.296875 0.15625 1.328125 0.296875q1.890625 0.25 2.640625 0.515625q0.96875 0.34375 1.5 1.03125q0.53125 0.671875 0.53125 1.421875q0 1.015625 -0.90625 1.703125q-1.28125 1.0 -3.34375 1.0q-0.828125 0 -1.53125 -0.15625q-0.703125 -0.140625 -1.28125 -0.421875q-0.140625 0.125 -0.296875 0.1875q-0.15625 0.0625 -0.328125 0.0625q-0.4375 0 -0.703125 -0.28125q-0.265625 -0.296875 -0.265625 -0.984375l0 -0.640625q0 -0.6875 0.265625 -0.96875q0.265625 -0.296875 0.6875 -0.296875q0.34375 0 0.5625 0.1875q0.234375 0.1875 0.375 0.65625q0.4375 0.375 1.046875 0.5625q0.609375 0.1875 1.40625 0.1875q1.3125 0 2.03125 -0.40625q0.34375 -0.203125 0.34375 -0.4375q0 -0.359375 -0.484375 -0.609375q-0.5 -0.234375 -2.03125 -0.40625q-2.296875 -0.234375 -3.0625 -0.921875q-0.78125 -0.6875 -0.78125 -1.671875q0 -1.015625 0.875 -1.703125q1.15625 -0.921875 3.0625 -0.921875q0.65625 0 1.265625 0.125q0.609375 0.125 1.15625 0.375q0.171875 -0.125 0.328125 -0.1875q0.15625 -0.0625 0.28125 -0.0625q0.390625 0 0.65625 0.296875q0.265625 0.28125 0.265625 0.96875l0 0.46875q0 0.625 -0.15625 0.84375q-0.296875 0.421875 -0.8125 0.421875q-0.34375 0 -0.609375 -0.203125q-0.25 -0.21875 -0.328125 -0.578125zm13.914322 2.953125l-7.796875 0q0.296875 0.75 1.046875 1.203125q0.765625 0.453125 2.046875 0.453125q1.0625 0 2.8125 -0.453125q0.734375 -0.1875 1.0 -0.1875q0.390625 0 0.640625 0.265625q0.265625 0.265625 0.265625 0.671875q0 0.375 -0.28125 0.640625q-0.375 0.34375 -1.8125 0.65625q-1.4375 0.3125 -2.765625 0.3125q-2.28125 0 -3.65625 -1.28125q-1.359375 -1.296875 -1.359375 -3.1875q0 -2.0 1.484375 -3.25q1.484375 -1.265625 3.40625 -1.265625q1.15625 0 2.125 0.40625q0.96875 0.40625 1.453125 0.875q0.65625 0.6875 1.09375 1.703125q0.296875 0.703125 0.296875 1.640625l0 0.796875zm-2.09375 -1.90625q-0.4375 -0.8125 -1.15625 -1.203125q-0.703125 -0.40625 -1.671875 -0.40625q-0.96875 0 -1.671875 0.40625q-0.703125 0.390625 -1.140625 1.203125l5.640625 0zm13.789322 10.859375l-10.453125 0q-0.6875 0 -0.96875 -0.265625q-0.296875 -0.25 -0.296875 -0.671875q0 -0.4375 0.296875 -0.703125q0.28125 -0.265625 0.96875 -0.265625l10.453125 0q0.671875 0 0.96875 0.265625q0.296875 0.265625 0.296875 0.703125q0 0.40625 -0.296875 0.671875q-0.28125 0.265625 -0.96875 0.265625zm5.461197 -12.21875l0 3.8125q0 0.609375 0.25 0.796875q0.390625 0.3125 1.390625 0.3125q1.453125 0 2.6875 -0.625q0.46875 -0.234375 0.75 -0.234375q0.359375 0 0.625 0.28125q0.28125 0.265625 0.28125 0.671875q0 0.375 -0.296875 0.640625q-0.453125 0.4375 -1.796875 0.8125q-1.328125 0.359375 -2.25 0.359375q-1.765625 0 -2.65625 -0.765625q-0.890625 -0.765625 -0.890625 -1.890625l0 -4.171875l-0.6875 0q-0.6875 0 -0.984375 -0.265625q-0.28125 -0.265625 -0.28125 -0.703125q0 -0.40625 0.28125 -0.671875q0.296875 -0.265625 0.984375 -0.265625l0.6875 0l0 -1.71875q0 -0.6875 0.265625 -0.96875q0.265625 -0.296875 0.6875 -0.296875q0.421875 0 0.6875 0.296875q0.265625 0.28125 0.265625 0.96875l0 1.71875l3.515625 0q0.6875 0 0.96875 0.265625q0.296875 0.265625 0.296875 0.6875q0 0.421875 -0.296875 0.6875q-0.28125 0.265625 -0.96875 0.265625l-3.515625 0zm16.601822 2.46875q0 1.09375 -0.609375 2.125q-0.609375 1.015625 -1.8125 1.625q-1.203125 0.609375 -2.5 0.609375q-1.296875 0 -2.484375 -0.59375q-1.1875 -0.609375 -1.8125 -1.640625q-0.625 -1.03125 -0.625 -2.15625q0 -1.140625 0.625 -2.234375q0.640625 -1.09375 1.8125 -1.71875q1.1875 -0.640625 2.484375 -0.640625q1.296875 0 2.5 0.640625q1.203125 0.640625 1.8125 1.734375q0.609375 1.09375 0.609375 2.25zm-1.90625 0q0 -0.921875 -0.65625 -1.6875q-0.890625 -1.03125 -2.359375 -1.03125q-1.296875 0 -2.15625 0.828125q-0.859375 0.8125 -0.859375 1.90625q0 0.890625 0.859375 1.671875q0.875 0.765625 2.15625 0.765625q1.28125 0 2.140625 -0.765625q0.875 -0.78125 0.875 -1.6875z" fill-rule="nonzero"></path><path fill="#000000" d="m249.54845 302.96176q0 -1.0625 0.28125 -2.25q0.28125 -1.203125 1.0625 -2.765625q0.796875 -1.578125 1.15625 -1.90625q0.109375 -0.09375 0.234375 -0.09375q0.171875 0 0.28125 0.109375q0.125 0.109375 0.125 0.265625q0 0.09375 -0.0625 0.203125q-1.03125 1.875 -1.46875 3.40625q-0.421875 1.515625 -0.421875 3.03125q0 1.53125 0.421875 3.0625q0.4375 1.515625 1.46875 3.375q0.0625 0.125 0.0625 0.203125q0 0.171875 -0.125 0.28125q-0.109375 0.109375 -0.28125 0.109375q-0.125 0 -0.234375 -0.09375q-0.34375 -0.3125 -1.125 -1.84375q-0.78125 -1.53125 -1.078125 -2.703125q-0.296875 -1.1875 -0.296875 -2.390625zm9.620621 -0.609375l0 4.453125l2.671875 0q0.265625 0 0.390625 0.109375q0.125 0.109375 0.125 0.28125q0 0.171875 -0.125 0.28125q-0.125 0.109375 -0.390625 0.109375l-4.5 0q-0.28125 0 -0.40625 -0.109375q-0.125 -0.109375 -0.125 -0.28125q0 -0.171875 0.125 -0.28125q0.125 -0.109375 0.40625 -0.109375l1.046875 0l0 -9.296875l-1.046875 0q-0.28125 0 -0.40625 -0.09375q-0.125 -0.109375 -0.125 -0.296875q0 -0.171875 0.140625 -0.296875q0.109375 -0.09375 0.390625 -0.09375l8.578125 0l0 2.6875q0 0.28125 -0.109375 0.40625q-0.109375 0.109375 -0.28125 0.109375q-0.171875 0 -0.296875 -0.109375q-0.109375 -0.125 -0.109375 -0.40625l0 -1.90625l-5.953125 0l0 4.0625l2.78125 0l0 -0.890625q0 -0.28125 0.109375 -0.390625q0.125 -0.125 0.296875 -0.125q0.171875 0 0.28125 0.125q0.109375 0.109375 0.109375 0.390625l0 2.546875q0 0.28125 -0.109375 0.40625q-0.109375 0.109375 -0.28125 0.109375q-0.171875 0 -0.296875 -0.109375q-0.109375 -0.125 -0.109375 -0.40625l0 -0.875l-2.78125 0zm10.745605 0.984375l0 3.46875l1.4375 0q0.296875 0 0.40625 0.109375q0.125 0.109375 0.125 0.28125q0 0.171875 -0.125 0.28125q-0.109375 0.109375 -0.40625 0.109375l-3.265625 0q-0.28125 0 -0.40625 -0.109375q-0.109375 -0.109375 -0.109375 -0.28125q0 -0.171875 0.109375 -0.28125q0.125 -0.109375 0.40625 -0.109375l1.046875 0l0 -9.296875l-1.046875 0q-0.28125 0 -0.40625 -0.09375q-0.109375 -0.109375 -0.109375 -0.296875q0 -0.171875 0.109375 -0.28125q0.125 -0.109375 0.40625 -0.109375l3.265625 0q0.296875 0 0.40625 0.109375q0.125 0.109375 0.125 0.28125q0 0.1875 -0.125 0.296875q-0.109375 0.09375 -0.40625 0.09375l-1.4375 0l0 4.796875l5.375 -4.796875l-0.84375 0q-0.296875 0 -0.421875 -0.09375q-0.109375 -0.109375 -0.109375 -0.296875q0 -0.171875 0.109375 -0.28125q0.125 -0.109375 0.421875 -0.109375l2.28125 0q0.28125 0 0.40625 0.109375q0.125 0.109375 0.125 0.28125q0 0.1875 -0.125 0.296875q-0.125 0.09375 -0.40625 0.09375l-0.3125 0l-4.28125 3.828125q0.953125 0.390625 1.578125 0.984375q0.640625 0.578125 1.21875 1.65625q0.34375 0.609375 1.234375 2.828125l0.96875 0q0.28125 0 0.40625 0.109375q0.125 0.109375 0.125 0.28125q0 0.171875 -0.125 0.28125q-0.125 0.109375 -0.40625 0.109375l-1.5 0q-1.234375 -3.34375 -2.0625 -4.296875q-0.828125 -0.96875 -2.09375 -1.359375l-1.5625 1.40625zm14.151855 -0.359375q0 1.0625 -0.28125 2.265625q-0.265625 1.1875 -1.0625 2.75q-0.78125 1.578125 -1.140625 1.890625q-0.109375 0.109375 -0.25 0.109375q-0.15625 0 -0.28125 -0.109375q-0.109375 -0.109375 -0.109375 -0.28125q0 -0.078125 0.0625 -0.203125q1.015625 -1.859375 1.453125 -3.375q0.4375 -1.53125 0.4375 -3.046875q0 -1.53125 -0.4375 -3.046875q-0.4375 -1.53125 -1.453125 -3.40625q-0.0625 -0.109375 -0.0625 -0.203125q0 -0.15625 0.109375 -0.265625q0.125 -0.109375 0.28125 -0.109375q0.140625 0 0.25 0.09375q0.34375 0.328125 1.109375 1.859375q0.78125 1.515625 1.078125 2.703125q0.296875 1.171875 0.296875 2.375z" fill-rule="nonzero"></path><path fill="#000000" fill-opacity="0.0" d="m116.87795 162.57217l0 31.508041l83.937004 0l0 31.51558" fill-rule="nonzero"></path><path stroke="#000000" stroke-width="2.0" stroke-linejoin="round" stroke-linecap="butt" stroke-dasharray="8.0,6.0" d="m116.87795 162.57217l0 31.508041l83.937004 0l0 31.51558" fill-rule="nonzero"></path><path fill="#cfe2f3" d="m611.7126 291.11023l312.76086 0l15.774597 15.774597l0 78.87109l-328.53546 0z" fill-rule="nonzero"></path><path stroke="#000000" stroke-width="1.0" stroke-linejoin="round" stroke-linecap="butt" d="m611.7126 291.11023l312.76086 0l15.774597 15.774597l0 78.87109l-328.53546 0z" fill-rule="nonzero"></path><path fill="#000000" d="m639.19415 328.85922q1.015625 0 2.0 0.53125q0.984375 0.515625 1.53125 1.5q0.546875 0.984375 0.546875 2.046875q0 1.6875 -1.203125 2.890625q-1.1875 1.203125 -2.875 1.203125q-1.703125 0 -2.90625 -1.203125q-1.1875 -1.203125 -1.1875 -2.890625q0 -1.0625 0.546875 -2.046875q0.546875 -0.984375 1.53125 -1.5q0.984375 -0.53125 2.015625 -0.53125z" fill-rule="nonzero"></path><path fill="#000000" d="m673.94696 331.7811l0 3.8125q0 0.609375 0.25 0.796875q0.390625 0.3125 1.390625 0.3125q1.453125 0 2.6875 -0.625q0.46875 -0.234375 0.75 -0.234375q0.359375 0 0.625 0.28125q0.28125 0.265625 0.28125 0.671875q0 0.375 -0.296875 0.640625q-0.453125 0.4375 -1.796875 0.8125q-1.328125 0.359375 -2.25 0.359375q-1.765625 0 -2.65625 -0.765625q-0.890625 -0.765625 -0.890625 -1.890625l0 -4.171875l-0.6875 0q-0.6875 0 -0.984375 -0.265625q-0.28125 -0.265625 -0.28125 -0.703125q0 -0.40625 0.28125 -0.671875q0.296875 -0.265625 0.984375 -0.265625l0.6875 0l0 -1.71875q0 -0.6875 0.265625 -0.96875q0.265625 -0.296875 0.6875 -0.296875q0.421875 0 0.6875 0.296875q0.265625 0.28125 0.265625 0.96875l0 1.71875l3.515625 0q0.6875 0 0.96875 0.265625q0.296875 0.265625 0.296875 0.6875q0 0.421875 -0.296875 0.6875q-0.28125 0.265625 -0.96875 0.265625l-3.515625 0zm16.429932 3.265625l-7.796875 0q0.296875 0.75 1.046875 1.203125q0.765625 0.453125 2.046875 0.453125q1.0625 0 2.8125 -0.453125q0.734375 -0.1875 1.0 -0.1875q0.390625 0 0.640625 0.265625q0.265625 0.265625 0.265625 0.671875q0 0.375 -0.28125 0.640625q-0.375 0.34375 -1.8125 0.65625q-1.4375 0.3125 -2.765625 0.3125q-2.28125 0 -3.65625 -1.28125q-1.359375 -1.296875 -1.359375 -3.1875q0 -2.0 1.484375 -3.25q1.484375 -1.265625 3.40625 -1.265625q1.15625 0 2.125 0.40625q0.96875 0.40625 1.453125 0.875q0.65625 0.6875 1.09375 1.703125q0.296875 0.703125 0.296875 1.640625l0 0.796875zm-2.09375 -1.90625q-0.4375 -0.8125 -1.15625 -1.203125q-0.703125 -0.40625 -1.671875 -0.40625q-0.96875 0 -1.671875 0.40625q-0.703125 0.390625 -1.140625 1.203125l5.640625 0zm9.945618 0.78125l2.890625 2.46875q0.515625 0.03125 0.765625 0.296875q0.265625 0.265625 0.265625 0.65625q0 0.421875 -0.296875 0.6875q-0.28125 0.265625 -0.96875 0.265625l-2.171875 0q-0.671875 0 -0.96875 -0.265625q-0.296875 -0.265625 -0.296875 -0.703125q0 -0.328125 0.203125 -0.578125q0.21875 -0.265625 0.578125 -0.359375l-1.421875 -1.21875l-1.4375 1.21875q0.421875 0.109375 0.609375 0.34375q0.203125 0.234375 0.203125 0.59375q0 0.4375 -0.296875 0.703125q-0.28125 0.265625 -0.96875 0.265625l-2.140625 0q-0.6875 0 -0.984375 -0.265625q-0.28125 -0.265625 -0.28125 -0.6875q0 -0.390625 0.25 -0.65625q0.265625 -0.265625 0.78125 -0.296875l2.828125 -2.484375l-2.5 -2.125q-0.5 -0.046875 -0.75 -0.3125q-0.25 -0.265625 -0.25 -0.65625q0 -0.40625 0.28125 -0.671875q0.296875 -0.265625 0.984375 -0.265625l1.78125 0q0.6875 0 0.96875 0.265625q0.296875 0.265625 0.296875 0.671875q0 0.546875 -0.515625 0.890625l1.15625 0.953125l1.125 -0.96875q-0.5 -0.375 -0.5 -0.84375q0 -0.4375 0.28125 -0.703125q0.296875 -0.265625 0.984375 -0.265625l1.765625 0q0.6875 0 0.96875 0.265625q0.296875 0.265625 0.296875 0.6875q0 0.375 -0.265625 0.640625q-0.25 0.265625 -0.75 0.3125l-2.5 2.140625zm9.304932 -2.140625l0 3.8125q0 0.609375 0.25 0.796875q0.390625 0.3125 1.390625 0.3125q1.453125 0 2.6875 -0.625q0.46875 -0.234375 0.75 -0.234375q0.359375 0 0.625 0.28125q0.28125 0.265625 0.28125 0.671875q0 0.375 -0.296875 0.640625q-0.453125 0.4375 -1.796875 0.8125q-1.328125 0.359375 -2.25 0.359375q-1.765625 0 -2.65625 -0.765625q-0.890625 -0.765625 -0.890625 -1.890625l0 -4.171875l-0.6875 0q-0.6875 0 -0.984375 -0.265625q-0.28125 -0.265625 -0.28125 -0.703125q0 -0.40625 0.28125 -0.671875q0.296875 -0.265625 0.984375 -0.265625l0.6875 0l0 -1.71875q0 -0.6875 0.265625 -0.96875q0.265625 -0.296875 0.6875 -0.296875q0.421875 0 0.6875 0.296875q0.265625 0.28125 0.265625 0.96875l0 1.71875l3.515625 0q0.6875 0 0.96875 0.265625q0.296875 0.265625 0.296875 0.6875q0 0.421875 -0.296875 0.6875q-0.28125 0.265625 -0.96875 0.265625l-3.515625 0z" fill-rule="nonzero"></path><path fill="#000000" d="m730.5061 333.67172q0 -1.0625 0.28125 -2.25q0.28125 -1.203125 1.0625 -2.765625q0.796875 -1.578125 1.15625 -1.90625q0.109375 -0.09375 0.234375 -0.09375q0.171875 0 0.28125 0.109375q0.125 0.109375 0.125 0.265625q0 0.09375 -0.0625 0.203125q-1.03125 1.875 -1.46875 3.40625q-0.421875 1.515625 -0.421875 3.03125q0 1.53125 0.421875 3.0625q0.4375 1.515625 1.46875 3.375q0.0625 0.125 0.0625 0.203125q0 0.171875 -0.125 0.28125q-0.109375 0.109375 -0.28125 0.109375q-0.125 0 -0.234375 -0.09375q-0.34375 -0.3125 -1.125 -1.84375q-0.78125 -1.53125 -1.078125 -2.703125q-0.296875 -1.1875 -0.296875 -2.390625zm14.07373 -2.90625q0 -0.265625 0.109375 -0.375q0.109375 -0.125 0.28125 -0.125q0.171875 0 0.28125 0.125q0.109375 0.109375 0.109375 0.40625l0 1.328125q0 0.28125 -0.109375 0.40625q-0.109375 0.109375 -0.28125 0.109375q-0.171875 0 -0.28125 -0.09375q-0.09375 -0.109375 -0.109375 -0.34375q-0.0625 -0.546875 -0.578125 -0.90625q-0.765625 -0.53125 -2.015625 -0.53125q-1.3125 0 -2.03125 0.53125q-0.546875 0.40625 -0.546875 0.890625q0 0.5625 0.640625 0.9375q0.453125 0.25 1.703125 0.390625q1.609375 0.171875 2.25 0.40625q0.890625 0.328125 1.328125 0.90625q0.453125 0.5625 0.453125 1.234375q0 0.984375 -0.953125 1.765625q-0.953125 0.78125 -2.8125 0.78125q-1.84375 0 -3.015625 -0.9375q0 0.3125 -0.046875 0.40625q-0.03125 0.09375 -0.125 0.15625q-0.09375 0.0625 -0.21875 0.0625q-0.171875 0 -0.28125 -0.109375q-0.109375 -0.125 -0.109375 -0.40625l0 -1.609375q0 -0.28125 0.109375 -0.390625q0.109375 -0.125 0.28125 -0.125q0.171875 0 0.28125 0.125q0.109375 0.109375 0.109375 0.296875q0 0.421875 0.21875 0.71875q0.328125 0.4375 1.03125 0.734375q0.71875 0.296875 1.75 0.296875q1.515625 0 2.25 -0.5625q0.75 -0.578125 0.75 -1.203125q0 -0.71875 -0.75 -1.15625q-0.765625 -0.4375 -2.21875 -0.578125q-1.453125 -0.15625 -2.078125 -0.390625q-0.625 -0.25 -0.984375 -0.734375q-0.359375 -0.484375 -0.359375 -1.03125q0 -1.015625 0.984375 -1.59375q0.984375 -0.59375 2.359375 -0.59375q1.609375 0 2.625 0.78125zm7.2143555 -0.5l4.234375 0q0.28125 0 0.390625 0.109375q0.125 0.109375 0.125 0.28125q0 0.171875 -0.125 0.28125q-0.109375 0.109375 -0.390625 0.109375l-4.234375 0l0 5.1875q0 0.6875 0.546875 1.140625q0.546875 0.453125 1.59375 0.453125q0.78125 0 1.703125 -0.234375q0.921875 -0.25 1.4375 -0.546875q0.1875 -0.109375 0.296875 -0.109375q0.15625 0 0.265625 0.125q0.109375 0.109375 0.109375 0.265625q0 0.140625 -0.125 0.25q-0.296875 0.3125 -1.4375 0.671875q-1.140625 0.359375 -2.1875 0.359375q-1.375 0 -2.1875 -0.640625q-0.796875 -0.640625 -0.796875 -1.734375l0 -5.1875l-1.4375 0q-0.28125 0 -0.40625 -0.109375q-0.109375 -0.109375 -0.109375 -0.28125q0 -0.171875 0.109375 -0.28125q0.125 -0.109375 0.40625 -0.109375l1.4375 0l0 -2.296875q0 -0.28125 0.109375 -0.40625q0.109375 -0.125 0.28125 -0.125q0.171875 0 0.28125 0.125q0.109375 0.125 0.109375 0.40625l0 2.296875zm12.07373 0l0 1.96875q1.53125 -1.375 2.28125 -1.765625q0.75 -0.40625 1.390625 -0.40625q0.703125 0 1.296875 0.46875q0.59375 0.46875 0.59375 0.71875q0 0.171875 -0.109375 0.296875q-0.109375 0.109375 -0.296875 0.109375q-0.09375 0 -0.15625 -0.03125q-0.0625 -0.03125 -0.234375 -0.21875q-0.328125 -0.3125 -0.578125 -0.4375q-0.234375 -0.125 -0.46875 -0.125q-0.5 0 -1.21875 0.40625q-0.71875 0.40625 -2.5 2.0l0 4.265625l3.453125 0q0.28125 0 0.40625 0.109375q0.125 0.109375 0.125 0.28125q0 0.171875 -0.125 0.28125q-0.125 0.109375 -0.40625 0.109375l-6.109375 0q-0.28125 0 -0.40625 -0.109375q-0.109375 -0.109375 -0.109375 -0.265625q0 -0.15625 0.109375 -0.265625q0.109375 -0.109375 0.40625 -0.109375l1.875 0l0 -6.5l-1.4375 0q-0.28125 0 -0.40625 -0.109375q-0.109375 -0.109375 -0.109375 -0.28125q0 -0.171875 0.109375 -0.28125q0.125 -0.109375 0.40625 -0.109375l2.21875 0zm12.72998 -4.0l0 2.015625l-1.15625 0l0 -2.015625l1.15625 0zm0.015625 4.0l0 7.25l3.0625 0q0.296875 0 0.40625 0.109375q0.125 0.109375 0.125 0.28125q0 0.171875 -0.125 0.28125q-0.109375 0.109375 -0.40625 0.109375l-6.90625 0q-0.265625 0 -0.390625 -0.109375q-0.125 -0.109375 -0.125 -0.28125q0 -0.171875 0.125 -0.28125q0.125 -0.109375 0.390625 -0.109375l3.0625 0l0 -6.46875l-2.265625 0q-0.28125 0 -0.40625 -0.109375q-0.125 -0.109375 -0.125 -0.28125q0 -0.171875 0.125 -0.28125q0.125 -0.109375 0.40625 -0.109375l3.046875 0zm8.47998 0l0 1.171875q0.8125 -0.828125 1.46875 -1.140625q0.65625 -0.3125 1.484375 -0.3125q0.890625 0 1.625 0.375q0.515625 0.28125 0.9375 0.9375q0.421875 0.640625 0.421875 1.3125l0 4.90625l0.65625 0q0.28125 0 0.40625 0.109375q0.125 0.109375 0.125 0.28125q0 0.171875 -0.125 0.28125q-0.125 0.109375 -0.40625 0.109375l-2.078125 0q-0.296875 0 -0.421875 -0.109375q-0.109375 -0.109375 -0.109375 -0.28125q0 -0.171875 0.109375 -0.28125q0.125 -0.109375 0.421875 -0.109375l0.640625 0l0 -4.78125q0 -0.828125 -0.609375 -1.390625q-0.59375 -0.578125 -1.609375 -0.578125q-0.765625 0 -1.328125 0.3125q-0.5625 0.3125 -1.609375 1.546875l0 4.890625l0.875 0q0.28125 0 0.390625 0.109375q0.125 0.109375 0.125 0.28125q0 0.171875 -0.125 0.28125q-0.109375 0.109375 -0.390625 0.109375l-2.546875 0q-0.265625 0 -0.390625 -0.109375q-0.125 -0.109375 -0.125 -0.28125q0 -0.171875 0.125 -0.28125q0.125 -0.109375 0.390625 -0.109375l0.890625 0l0 -6.46875l-0.65625 0q-0.28125 0 -0.40625 -0.109375q-0.125 -0.109375 -0.125 -0.28125q0 -0.171875 0.125 -0.28125q0.125 -0.109375 0.40625 -0.109375l1.4375 0zm16.54248 1.421875l0 -1.421875l1.828125 0q0.265625 0 0.390625 0.109375q0.125 0.109375 0.125 0.28125q0 0.171875 -0.125 0.28125q-0.125 0.109375 -0.390625 0.109375l-1.0625 0l0 7.78125q0 0.78125 -0.328125 1.40625q-0.21875 0.40625 -0.75 0.828125q-0.515625 0.4375 -0.9375 0.625q-0.421875 0.1875 -1.140625 0.1875l-2.203125 0q-0.28125 0 -0.40625 -0.109375q-0.125 -0.09375 -0.125 -0.28125q0 -0.171875 0.125 -0.28125q0.125 -0.109375 0.40625 -0.109375l2.234375 0q0.6875 0 1.234375 -0.359375q0.546875 -0.34375 0.921875 -1.015625q0.203125 -0.390625 0.203125 -1.0l0 -2.328125q-1.265625 1.71875 -3.234375 1.71875q-1.609375 0 -2.78125 -1.1875q-1.15625 -1.203125 -1.15625 -2.890625q0 -1.671875 1.15625 -2.859375q1.171875 -1.1875 2.78125 -1.1875q1.96875 0 3.234375 1.703125zm0 2.34375q0 -1.359375 -0.953125 -2.3125q-0.9375 -0.953125 -2.25 -0.953125q-1.296875 0 -2.234375 0.953125q-0.9375 0.953125 -0.9375 2.3125q0 1.375 0.9375 2.328125q0.9375 0.953125 2.234375 0.953125q1.3125 0 2.25 -0.953125q0.953125 -0.953125 0.953125 -2.328125zm8.995605 -0.34375q0 1.0625 -0.28125 2.265625q-0.265625 1.1875 -1.0625 2.75q-0.78125 1.578125 -1.140625 1.890625q-0.109375 0.109375 -0.25 0.109375q-0.15625 0 -0.28125 -0.109375q-0.109375 -0.109375 -0.109375 -0.28125q0 -0.078125 0.0625 -0.203125q1.015625 -1.859375 1.453125 -3.375q0.4375 -1.53125 0.4375 -3.046875q0 -1.53125 -0.4375 -3.046875q-0.4375 -1.53125 -1.453125 -3.40625q-0.0625 -0.109375 -0.0625 -0.203125q0 -0.15625 0.109375 -0.265625q0.125 -0.109375 0.28125 -0.109375q0.140625 0 0.25 0.09375q0.34375 0.328125 1.109375 1.859375q0.78125 1.515625 1.078125 2.703125q0.296875 1.171875 0.296875 2.375z" fill-rule="nonzero"></path><path fill="#000000" d="m639.19415 350.85922q1.015625 0 2.0 0.53125q0.984375 0.515625 1.53125 1.5q0.546875 0.984375 0.546875 2.046875q0 1.6875 -1.203125 2.890625q-1.1875 1.203125 -2.875 1.203125q-1.703125 0 -2.90625 -1.203125q-1.1875 -1.203125 -1.1875 -2.890625q0 -1.0625 0.546875 -2.046875q0.546875 -0.984375 1.53125 -1.5q0.984375 -0.53125 2.015625 -0.53125z" fill-rule="nonzero"></path><path fill="#000000" d="m679.3532 356.24985q0 1.09375 -0.609375 2.125q-0.609375 1.015625 -1.8125 1.625q-1.203125 0.609375 -2.5 0.609375q-1.296875 0 -2.484375 -0.59375q-1.1875 -0.609375 -1.8125 -1.640625q-0.625 -1.03125 -0.625 -2.15625q0 -1.140625 0.625 -2.234375q0.640625 -1.09375 1.8125 -1.71875q1.1875 -0.640625 2.484375 -0.640625q1.296875 0 2.5 0.640625q1.203125 0.640625 1.8125 1.734375q0.609375 1.09375 0.609375 2.25zm-1.90625 0q0 -0.921875 -0.65625 -1.6875q-0.890625 -1.03125 -2.359375 -1.03125q-1.296875 0 -2.15625 0.828125q-0.859375 0.8125 -0.859375 1.90625q0 0.890625 0.859375 1.671875q0.875 0.765625 2.15625 0.765625q1.28125 0 2.140625 -0.765625q0.875 -0.78125 0.875 -1.6875zm11.133057 -4.03125q0.34375 -0.328125 0.703125 -0.328125q0.40625 0 0.671875 0.296875q0.265625 0.28125 0.265625 0.96875l0 1.21875q0 0.6875 -0.265625 0.984375q-0.265625 0.28125 -0.6875 0.28125q-0.390625 0 -0.671875 -0.21875q-0.1875 -0.171875 -0.296875 -0.6875q-0.109375 -0.515625 -0.546875 -0.765625q-0.75 -0.4375 -1.921875 -0.4375q-1.34375 0 -2.15625 0.78125q-0.8125 0.78125 -0.8125 2.0q0 1.109375 0.78125 1.75q0.78125 0.640625 2.59375 0.640625q1.1875 0 1.9375 -0.234375q0.453125 -0.140625 0.84375 -0.5q0.40625 -0.359375 0.71875 -0.359375q0.390625 0 0.671875 0.296875q0.296875 0.28125 0.296875 0.671875q0 0.625 -0.875 1.1875q-1.28125 0.84375 -3.75 0.84375q-2.203125 0 -3.4375 -0.921875q-1.671875 -1.234375 -1.671875 -3.375q0 -2.03125 1.34375 -3.359375q1.359375 -1.328125 3.546875 -1.328125q0.78125 0 1.453125 0.15625q0.6875 0.140625 1.265625 0.4375zm11.195618 0q0.34375 -0.328125 0.703125 -0.328125q0.40625 0 0.671875 0.296875q0.265625 0.28125 0.265625 0.96875l0 1.21875q0 0.6875 -0.265625 0.984375q-0.265625 0.28125 -0.6875 0.28125q-0.390625 0 -0.671875 -0.21875q-0.1875 -0.171875 -0.296875 -0.6875q-0.109375 -0.515625 -0.546875 -0.765625q-0.75 -0.4375 -1.921875 -0.4375q-1.34375 0 -2.15625 0.78125q-0.8125 0.78125 -0.8125 2.0q0 1.109375 0.78125 1.75q0.78125 0.640625 2.59375 0.640625q1.1875 0 1.9375 -0.234375q0.453125 -0.140625 0.84375 -0.5q0.40625 -0.359375 0.71875 -0.359375q0.390625 0 0.671875 0.296875q0.296875 0.28125 0.296875 0.671875q0 0.625 -0.875 1.1875q-1.28125 0.84375 -3.75 0.84375q-2.203125 0 -3.4375 -0.921875q-1.671875 -1.234375 -1.671875 -3.375q0 -2.03125 1.34375 -3.359375q1.359375 -1.328125 3.546875 -1.328125q0.78125 0 1.453125 0.15625q0.6875 0.140625 1.265625 0.4375zm12.258057 -0.34375l0 6.515625q0.609375 0 0.890625 0.28125q0.296875 0.265625 0.296875 0.671875q0 0.421875 -0.296875 0.6875q-0.296875 0.265625 -0.96875 0.265625l-1.8125 0l0 -0.4375q-0.828125 0.375 -1.578125 0.5625q-0.734375 0.1875 -1.390625 0.1875q-0.9375 0 -1.625 -0.390625q-0.6875 -0.40625 -1.09375 -1.09375q-0.28125 -0.5 -0.28125 -1.265625l0 -4.078125l-0.328125 0q-0.6875 0 -0.984375 -0.265625q-0.28125 -0.265625 -0.28125 -0.703125q0 -0.40625 0.28125 -0.671875q0.296875 -0.265625 0.984375 -0.265625l2.234375 0l0 5.65625q0 0.609375 0.28125 0.890625q0.296875 0.28125 0.90625 0.28125q0.5625 0 1.21875 -0.21875q0.671875 -0.234375 1.65625 -0.828125l0 -3.875l-0.6875 0q-0.6875 0 -0.984375 -0.265625q-0.296875 -0.265625 -0.296875 -0.703125q0 -0.40625 0.296875 -0.671875q0.296875 -0.265625 0.984375 -0.265625l2.578125 0zm6.7736816 0l0 1.1875q1.1875 -0.859375 1.875 -1.140625q0.703125 -0.296875 1.296875 -0.296875q0.9375 0 1.796875 0.6875q0.59375 0.453125 0.59375 0.9375q0 0.40625 -0.28125 0.703125q-0.28125 0.28125 -0.671875 0.28125q-0.359375 0 -0.75 -0.34375q-0.390625 -0.359375 -0.6875 -0.359375q-0.40625 0 -1.203125 0.5q-0.78125 0.5 -1.96875 1.5l0 2.859375l2.703125 0q0.6875 0 0.96875 0.265625q0.296875 0.265625 0.296875 0.6875q0 0.421875 -0.296875 0.6875q-0.28125 0.265625 -0.96875 0.265625l-5.75 0q-0.671875 0 -0.96875 -0.265625q-0.296875 -0.265625 -0.296875 -0.6875q0 -0.421875 0.296875 -0.6875q0.296875 -0.265625 0.96875 -0.265625l1.140625 0l0 -4.609375l-0.6875 0q-0.6875 0 -0.984375 -0.265625q-0.28125 -0.265625 -0.28125 -0.703125q0 -0.40625 0.28125 -0.671875q0.296875 -0.265625 0.984375 -0.265625l2.59375 0zm11.195557 0l0 1.1875q1.1875 -0.859375 1.875 -1.140625q0.703125 -0.296875 1.296875 -0.296875q0.9375 0 1.796875 0.6875q0.59375 0.453125 0.59375 0.9375q0 0.40625 -0.28125 0.703125q-0.28125 0.28125 -0.671875 0.28125q-0.359375 0 -0.75 -0.34375q-0.390625 -0.359375 -0.6875 -0.359375q-0.40625 0 -1.203125 0.5q-0.78125 0.5 -1.96875 1.5l0 2.859375l2.703125 0q0.6875 0 0.96875 0.265625q0.296875 0.265625 0.296875 0.6875q0 0.421875 -0.296875 0.6875q-0.28125 0.265625 -0.96875 0.265625l-5.75 0q-0.671875 0 -0.96875 -0.265625q-0.296875 -0.265625 -0.296875 -0.6875q0 -0.421875 0.296875 -0.6875q0.296875 -0.265625 0.96875 -0.265625l1.140625 0l0 -4.609375l-0.6875 0q-0.6875 0 -0.984375 -0.265625q-0.28125 -0.265625 -0.28125 -0.703125q0 -0.40625 0.28125 -0.671875q0.296875 -0.265625 0.984375 -0.265625l2.59375 0zm16.351868 5.171875l-7.796875 0q0.296875 0.75 1.046875 1.203125q0.765625 0.453125 2.046875 0.453125q1.0625 0 2.8125 -0.453125q0.734375 -0.1875 1.0 -0.1875q0.390625 0 0.640625 0.265625q0.265625 0.265625 0.265625 0.671875q0 0.375 -0.28125 0.640625q-0.375 0.34375 -1.8125 0.65625q-1.4375 0.3125 -2.765625 0.3125q-2.28125 0 -3.65625 -1.28125q-1.359375 -1.296875 -1.359375 -3.1875q0 -2.0 1.484375 -3.25q1.484375 -1.265625 3.40625 -1.265625q1.15625 0 2.125 0.40625q0.96875 0.40625 1.453125 0.875q0.65625 0.6875 1.09375 1.703125q0.296875 0.703125 0.296875 1.640625l0 0.796875zm-2.09375 -1.90625q-0.4375 -0.8125 -1.15625 -1.203125q-0.703125 -0.40625 -1.671875 -0.40625q-0.96875 0 -1.671875 0.40625q-0.703125 0.390625 -1.140625 1.203125l5.640625 0zm6.6018066 -3.265625l0 0.640625q0.515625 -0.453125 1.140625 -0.671875q0.625 -0.21875 1.359375 -0.21875q1.6875 0 2.671875 1.046875q0.78125 0.828125 0.78125 2.1875l0 3.53125q0.59375 0 0.875 0.265625q0.296875 0.265625 0.296875 0.6875q0 0.421875 -0.296875 0.6875q-0.28125 0.265625 -0.96875 0.265625l-1.71875 0q-0.6875 0 -0.984375 -0.265625q-0.28125 -0.265625 -0.28125 -0.6875q0 -0.421875 0.28125 -0.6875q0.296875 -0.265625 0.890625 -0.265625l0 -3.59375q0 -0.609375 -0.328125 -0.90625q-0.4375 -0.359375 -1.3125 -0.359375q-0.65625 0 -1.15625 0.25q-0.5 0.25 -1.25 1.078125l0 3.53125q0.734375 0 0.9375 0.140625q0.453125 0.28125 0.453125 0.8125q0 0.421875 -0.296875 0.6875q-0.28125 0.265625 -0.96875 0.265625l-2.15625 0q-0.6875 0 -0.984375 -0.265625q-0.296875 -0.265625 -0.296875 -0.6875q0 -0.515625 0.453125 -0.8125q0.21875 -0.140625 0.953125 -0.140625l0 -4.609375q-0.609375 0 -0.890625 -0.265625q-0.28125 -0.28125 -0.28125 -0.703125q0 -0.40625 0.28125 -0.671875q0.296875 -0.265625 0.984375 -0.265625l1.8125 0zm16.086182 0.34375q0.34375 -0.328125 0.703125 -0.328125q0.40625 0 0.671875 0.296875q0.265625 0.28125 0.265625 0.96875l0 1.21875q0 0.6875 -0.265625 0.984375q-0.265625 0.28125 -0.6875 0.28125q-0.390625 0 -0.671875 -0.21875q-0.1875 -0.171875 -0.296875 -0.6875q-0.109375 -0.515625 -0.546875 -0.765625q-0.75 -0.4375 -1.921875 -0.4375q-1.34375 0 -2.15625 0.78125q-0.8125 0.78125 -0.8125 2.0q0 1.109375 0.78125 1.75q0.78125 0.640625 2.59375 0.640625q1.1875 0 1.9375 -0.234375q0.453125 -0.140625 0.84375 -0.5q0.40625 -0.359375 0.71875 -0.359375q0.390625 0 0.671875 0.296875q0.296875 0.28125 0.296875 0.671875q0 0.625 -0.875 1.1875q-1.28125 0.84375 -3.75 0.84375q-2.203125 0 -3.4375 -0.921875q-1.671875 -1.234375 -1.671875 -3.375q0 -2.03125 1.34375 -3.359375q1.359375 -1.328125 3.546875 -1.328125q0.78125 0 1.453125 0.15625q0.6875 0.140625 1.265625 0.4375zm12.992432 4.828125l-7.796875 0q0.296875 0.75 1.046875 1.203125q0.765625 0.453125 2.046875 0.453125q1.0625 0 2.8125 -0.453125q0.734375 -0.1875 1.0 -0.1875q0.390625 0 0.640625 0.265625q0.265625 0.265625 0.265625 0.671875q0 0.375 -0.28125 0.640625q-0.375 0.34375 -1.8125 0.65625q-1.4375 0.3125 -2.765625 0.3125q-2.28125 0 -3.65625 -1.28125q-1.359375 -1.296875 -1.359375 -3.1875q0 -2.0 1.484375 -3.25q1.484375 -1.265625 3.40625 -1.265625q1.15625 0 2.125 0.40625q0.96875 0.40625 1.453125 0.875q0.65625 0.6875 1.09375 1.703125q0.296875 0.703125 0.296875 1.640625l0 0.796875zm-2.09375 -1.90625q-0.4375 -0.8125 -1.15625 -1.203125q-0.703125 -0.40625 -1.671875 -0.40625q-0.96875 0 -1.671875 0.40625q-0.703125 0.390625 -1.140625 1.203125l5.640625 0z" fill-rule="nonzero"></path><path fill="#000000" d="m797.67957 355.67172q0 -1.0625 0.28125 -2.25q0.28125 -1.203125 1.0625 -2.765625q0.796875 -1.578125 1.15625 -1.90625q0.109375 -0.09375 0.234375 -0.09375q0.171875 0 0.28125 0.109375q0.125 0.109375 0.125 0.265625q0 0.09375 -0.0625 0.203125q-1.03125 1.875 -1.46875 3.40625q-0.421875 1.515625 -0.421875 3.03125q0 1.53125 0.421875 3.0625q0.4375 1.515625 1.46875 3.375q0.0625 0.125 0.0625 0.203125q0 0.171875 -0.125 0.28125q-0.109375 0.109375 -0.28125 0.109375q-0.125 0 -0.234375 -0.09375q-0.34375 -0.3125 -1.125 -1.84375q-0.78125 -1.53125 -1.078125 -2.703125q-0.296875 -1.1875 -0.296875 -2.390625zm11.88623 -7.40625l0 2.015625l-1.15625 0l0 -2.015625l1.15625 0zm0.015625 4.0l0 7.25l3.0625 0q0.296875 0 0.40625 0.109375q0.125 0.109375 0.125 0.28125q0 0.171875 -0.125 0.28125q-0.109375 0.109375 -0.40625 0.109375l-6.90625 0q-0.265625 0 -0.390625 -0.109375q-0.125 -0.109375 -0.125 -0.28125q0 -0.171875 0.125 -0.28125q0.125 -0.109375 0.390625 -0.109375l3.0625 0l0 -6.46875l-2.265625 0q-0.28125 0 -0.40625 -0.109375q-0.125 -0.109375 -0.125 -0.28125q0 -0.171875 0.125 -0.28125q0.125 -0.109375 0.40625 -0.109375l3.046875 0zm8.47998 0l0 1.171875q0.8125 -0.828125 1.46875 -1.140625q0.65625 -0.3125 1.484375 -0.3125q0.890625 0 1.625 0.375q0.515625 0.28125 0.9375 0.9375q0.421875 0.640625 0.421875 1.3125l0 4.90625l0.65625 0q0.28125 0 0.40625 0.109375q0.125 0.109375 0.125 0.28125q0 0.171875 -0.125 0.28125q-0.125 0.109375 -0.40625 0.109375l-2.078125 0q-0.296875 0 -0.421875 -0.109375q-0.109375 -0.109375 -0.109375 -0.28125q0 -0.171875 0.109375 -0.28125q0.125 -0.109375 0.421875 -0.109375l0.640625 0l0 -4.78125q0 -0.828125 -0.609375 -1.390625q-0.59375 -0.578125 -1.609375 -0.578125q-0.765625 0 -1.328125 0.3125q-0.5625 0.3125 -1.609375 1.546875l0 4.890625l0.875 0q0.28125 0 0.390625 0.109375q0.125 0.109375 0.125 0.28125q0 0.171875 -0.125 0.28125q-0.109375 0.109375 -0.390625 0.109375l-2.546875 0q-0.265625 0 -0.390625 -0.109375q-0.125 -0.109375 -0.125 -0.28125q0 -0.171875 0.125 -0.28125q0.125 -0.109375 0.390625 -0.109375l0.890625 0l0 -6.46875l-0.65625 0q-0.28125 0 -0.40625 -0.109375q-0.125 -0.109375 -0.125 -0.28125q0 -0.171875 0.125 -0.28125q0.125 -0.109375 0.40625 -0.109375l1.4375 0zm12.308105 0l4.234375 0q0.28125 0 0.390625 0.109375q0.125 0.109375 0.125 0.28125q0 0.171875 -0.125 0.28125q-0.109375 0.109375 -0.390625 0.109375l-4.234375 0l0 5.1875q0 0.6875 0.546875 1.140625q0.546875 0.453125 1.59375 0.453125q0.78125 0 1.703125 -0.234375q0.921875 -0.25 1.4375 -0.546875q0.1875 -0.109375 0.296875 -0.109375q0.15625 0 0.265625 0.125q0.109375 0.109375 0.109375 0.265625q0 0.140625 -0.125 0.25q-0.296875 0.3125 -1.4375 0.671875q-1.140625 0.359375 -2.1875 0.359375q-1.375 0 -2.1875 -0.640625q-0.796875 -0.640625 -0.796875 -1.734375l0 -5.1875l-1.4375 0q-0.28125 0 -0.40625 -0.109375q-0.109375 -0.109375 -0.109375 -0.28125q0 -0.171875 0.109375 -0.28125q0.125 -0.109375 0.40625 -0.109375l1.4375 0l0 -2.296875q0 -0.28125 0.109375 -0.40625q0.109375 -0.125 0.28125 -0.125q0.171875 0 0.28125 0.125q0.109375 0.125 0.109375 0.40625l0 2.296875zm17.22998 4.203125l-7.953125 0q0.21875 1.515625 1.28125 2.4375q1.0625 0.921875 2.625 0.921875q0.875 0 1.828125 -0.28125q0.953125 -0.296875 1.5625 -0.765625q0.171875 -0.140625 0.296875 -0.140625q0.15625 0 0.265625 0.125q0.109375 0.109375 0.109375 0.265625q0 0.15625 -0.15625 0.296875q-0.4375 0.46875 -1.578125 0.875q-1.140625 0.40625 -2.328125 0.40625q-2.0 0 -3.34375 -1.3125q-1.34375 -1.3125 -1.34375 -3.1875q0 -1.6875 1.25 -2.90625q1.265625 -1.21875 3.125 -1.21875q1.90625 0 3.140625 1.25q1.234375 1.25 1.21875 3.234375zm-0.796875 -0.796875q-0.234375 -1.28125 -1.21875 -2.09375q-0.984375 -0.8125 -2.34375 -0.8125q-1.375 0 -2.359375 0.8125q-0.96875 0.796875 -1.21875 2.09375l7.140625 0zm10.60498 -1.984375l0 -1.421875l1.828125 0q0.265625 0 0.390625 0.109375q0.125 0.109375 0.125 0.28125q0 0.171875 -0.125 0.28125q-0.125 0.109375 -0.390625 0.109375l-1.0625 0l0 7.78125q0 0.78125 -0.328125 1.40625q-0.21875 0.40625 -0.75 0.828125q-0.515625 0.4375 -0.9375 0.625q-0.421875 0.1875 -1.140625 0.1875l-2.203125 0q-0.28125 0 -0.40625 -0.109375q-0.125 -0.09375 -0.125 -0.28125q0 -0.171875 0.125 -0.28125q0.125 -0.109375 0.40625 -0.109375l2.234375 0q0.6875 0 1.234375 -0.359375q0.546875 -0.34375 0.921875 -1.015625q0.203125 -0.390625 0.203125 -1.0l0 -2.328125q-1.265625 1.71875 -3.234375 1.71875q-1.609375 0 -2.78125 -1.1875q-1.15625 -1.203125 -1.15625 -2.890625q0 -1.671875 1.15625 -2.859375q1.171875 -1.1875 2.78125 -1.1875q1.96875 0 3.234375 1.703125zm0 2.34375q0 -1.359375 -0.953125 -2.3125q-0.9375 -0.953125 -2.25 -0.953125q-1.296875 0 -2.234375 0.953125q-0.9375 0.953125 -0.9375 2.3125q0 1.375 0.9375 2.328125q0.9375 0.953125 2.234375 0.953125q1.3125 0 2.25 -0.953125q0.953125 -0.953125 0.953125 -2.328125zm12.995605 0.4375l-7.953125 0q0.21875 1.515625 1.28125 2.4375q1.0625 0.921875 2.625 0.921875q0.875 0 1.828125 -0.28125q0.953125 -0.296875 1.5625 -0.765625q0.171875 -0.140625 0.296875 -0.140625q0.15625 0 0.265625 0.125q0.109375 0.109375 0.109375 0.265625q0 0.15625 -0.15625 0.296875q-0.4375 0.46875 -1.578125 0.875q-1.140625 0.40625 -2.328125 0.40625q-2.0 0 -3.34375 -1.3125q-1.34375 -1.3125 -1.34375 -3.1875q0 -1.6875 1.25 -2.90625q1.265625 -1.21875 3.125 -1.21875q1.90625 0 3.140625 1.25q1.234375 1.25 1.21875 3.234375zm-0.796875 -0.796875q-0.234375 -1.28125 -1.21875 -2.09375q-0.984375 -0.8125 -2.34375 -0.8125q-1.375 0 -2.359375 0.8125q-0.96875 0.796875 -1.21875 2.09375l7.140625 0zm7.0424805 -3.40625l0 1.96875q1.53125 -1.375 2.28125 -1.765625q0.75 -0.40625 1.390625 -0.40625q0.703125 0 1.296875 0.46875q0.59375 0.46875 0.59375 0.71875q0 0.171875 -0.109375 0.296875q-0.109375 0.109375 -0.296875 0.109375q-0.09375 0 -0.15625 -0.03125q-0.0625 -0.03125 -0.234375 -0.21875q-0.328125 -0.3125 -0.578125 -0.4375q-0.234375 -0.125 -0.46875 -0.125q-0.5 0 -1.21875 0.40625q-0.71875 0.40625 -2.5 2.0l0 4.265625l3.453125 0q0.28125 0 0.40625 0.109375q0.125 0.109375 0.125 0.28125q0 0.171875 -0.125 0.28125q-0.125 0.109375 -0.40625 0.109375l-6.109375 0q-0.28125 0 -0.40625 -0.109375q-0.109375 -0.109375 -0.109375 -0.265625q0 -0.15625 0.109375 -0.265625q0.109375 -0.109375 0.40625 -0.109375l1.875 0l0 -6.5l-1.4375 0q-0.28125 0 -0.40625 -0.109375q-0.109375 -0.109375 -0.109375 -0.28125q0 -0.171875 0.109375 -0.28125q0.125 -0.109375 0.40625 -0.109375l2.21875 0zm12.558105 3.421875q0 1.0625 -0.28125 2.265625q-0.265625 1.1875 -1.0625 2.75q-0.78125 1.578125 -1.140625 1.890625q-0.109375 0.109375 -0.25 0.109375q-0.15625 0 -0.28125 -0.109375q-0.109375 -0.109375 -0.109375 -0.28125q0 -0.078125 0.0625 -0.203125q1.015625 -1.859375 1.453125 -3.375q0.4375 -1.53125 0.4375 -3.046875q0 -1.53125 -0.4375 -3.046875q-0.4375 -1.53125 -1.453125 -3.40625q-0.0625 -0.109375 -0.0625 -0.203125q0 -0.15625 0.109375 -0.265625q0.125 -0.109375 0.28125 -0.109375q0.140625 0 0.25 0.09375q0.34375 0.328125 1.109375 1.859375q0.78125 1.515625 1.078125 2.703125q0.296875 1.171875 0.296875 2.375z" fill-rule="nonzero"></path><path fill="#000000" fill-opacity="0.0" d="m917.49475 233.91077l0 28.599579l-141.51184 0l0 28.59726" fill-rule="nonzero"></path><path stroke="#000000" stroke-width="2.0" stroke-linejoin="round" stroke-linecap="butt" stroke-dasharray="8.0,6.0" d="m917.49475 233.91077l0 28.599579l-141.51184 0l0 28.59726" fill-rule="nonzero"></path></g></svg>

